<svg xmlns="http://www.w3.org/2000/svg" viewBox="0 0 59.87 37.25"><defs><style>.cls-1{fill:none;}.cls-2{fill:#485d74;}.cls-3{fill:#45b6a7;}.cls-4{fill:#53b79f;}.cls-5{fill:#e52d3a;}.cls-6{fill:#fff;}.cls-7{fill:#505c73;}</style></defs><title>logo-enoc</title><g id="Layer_2" data-name="Layer 2"><g id="Layer_1-2" data-name="Layer 1"><rect class="cls-1" width="59.82" height="37.25"/><rect class="cls-2" x="58.58" y="9.01" width="1.11" height="8.51"/><path class="cls-2" d="M54.44,19a.64.64,0,1,0,.64-.65.64.64,0,0,0-.64.65"/><path class="cls-2" d="M56.13,19a.64.64,0,1,0,.64-.65.64.64,0,0,0-.64.65"/><path class="cls-3" d="M10.72,26.73a9.55,9.55,0,0,1,.92-3.82,6.86,6.86,0,0,1-2.46-5.19c.1-4.81,4.75-7.62,4.82-11.11a2.84,2.84,0,0,0-.59-1.82,13.9,13.9,0,0,0,0,27.78,7.87,7.87,0,0,1-2.68-5.84"/><path class="cls-4" d="M15.56,11.71c-1,3.7-4.47,6.19-4.53,9.19a2.77,2.77,0,0,0,.67,1.89c1.58-3.38,4.54-5.92,4.6-8.91a3.36,3.36,0,0,0-.74-2.17"/><path class="cls-5" d="M13.9,4.78h-.31a6.77,6.77,0,0,1,2.26,5,7.8,7.8,0,0,1-.25,1.78,7.89,7.89,0,0,1,2.83,6c-.11,5.58-5.49,8.82-5.57,12.85a3.26,3.26,0,0,0,.74,2.18h.3a13.9,13.9,0,0,0,0-27.8"/><path class="cls-6" d="M15.6,11.58a8.59,8.59,0,0,0,.25-1.79,6.82,6.82,0,0,0-2.26-5H13.4A2.86,2.86,0,0,1,14,6.61c-.07,3.49-4.72,6.29-4.82,11.11a6.86,6.86,0,0,0,2.46,5.19,9.55,9.55,0,0,0-.92,3.82,7.87,7.87,0,0,0,2.68,5.84h.2a3.26,3.26,0,0,1-.74-2.18c.08-4,5.46-7.27,5.57-12.84a7.86,7.86,0,0,0-2.83-6m.7,2.3c-.06,3-3,5.53-4.6,8.91A2.77,2.77,0,0,1,11,20.9c.06-3,3.5-5.49,4.53-9.19a3.36,3.36,0,0,1,.74,2.17"/><path class="cls-7" d="M35.41,21.62a3.37,3.37,0,1,0,.08,6.73A3.22,3.22,0,0,0,38.3,26.9l-.95-.53a2.06,2.06,0,0,1-1.83.93,2.19,2.19,0,0,1-2.32-1.8h5.36a4.19,4.19,0,0,0,0-.5,3.22,3.22,0,0,0-3.18-3.38M33.2,24.53a2.12,2.12,0,0,1,2.21-1.86,2,2,0,0,1,2.06,1.86Z"/><path class="cls-7" d="M42.79,21.62a2.27,2.27,0,0,0-2.06,1.09v-.92H39.62v6.39h1.11V24.79c0-1.5.83-2.1,1.85-2.1a1.47,1.47,0,0,1,1.58,1.63v3.86h1.11V24.26a2.39,2.39,0,0,0-2.48-2.64"/><path class="cls-7" d="M49.56,21.62A3.37,3.37,0,1,0,52.93,25a3.33,3.33,0,0,0-3.37-3.37m0,5.64A2.28,2.28,0,1,1,51.82,25a2.22,2.22,0,0,1-2.26,2.27"/><path class="cls-7" d="M57,27.25a2.27,2.27,0,0,1,0-4.54,2.06,2.06,0,0,1,1.9,1.13l.93-.54A3.08,3.08,0,0,0,57,21.62a3.37,3.37,0,0,0,0,6.73,3.25,3.25,0,0,0,2.88-1.66l-.95-.55A2.15,2.15,0,0,1,57,27.25"/><rect class="cls-7" x="58.58" y="9.01" width="1.11" height="8.51"/><path class="cls-7" d="M35.26,17.52h7.15V9H41.3v7.39h-6a2.08,2.08,0,1,1,0-4.16h.67V11.13h-.67a3.2,3.2,0,0,0,0,6.39"/><path class="cls-7" d="M54.47,17.52h.82a2.12,2.12,0,0,0,2.12-2.12V11.13H56.3V15.4a1,1,0,0,1-1,1h-.82a1,1,0,0,1-1-1v-4.3H52.35v4.29a1,1,0,0,1-1,1h-2V11.13H46.78a3.2,3.2,0,0,0,0,6.39h1.5a1,1,0,0,1-1,1H45.51v1.12h1.76a2.12,2.12,0,0,0,2.12-2.09h2a2.09,2.09,0,0,0,1.56-.69,2.09,2.09,0,0,0,1.56.69M44.7,14.33a2.09,2.09,0,0,1,2.08-2.09h1.5v4.17h-1.5a2.08,2.08,0,0,1-2.08-2.08"/><path class="cls-7" d="M52.91,10.3a.64.64,0,1,0,0-1.28.64.64,0,0,0-.64.64.64.64,0,0,0,.64.64"/><path class="cls-7" d="M54.44,19a.64.64,0,1,0,.64-.65.64.64,0,0,0-.64.65"/><path class="cls-7" d="M56.13,19a.64.64,0,0,0,.64.64.65.65,0,1,0-.64-.64"/><path class="cls-7" d="M39.86,12.8h-.93a.47.47,0,0,1-.46-.46.46.46,0,0,1,.46-.46h.51v-.75h-.51a1.21,1.21,0,0,0-1.21,1.21,1.39,1.39,0,0,0,.09.46h-.44v.75h2.49Z"/></g></g></svg>