<?xml version="1.0" encoding="utf-8"?>
<!-- Generator: Adobe Illustrator 23.0.3, SVG Export Plug-In . SVG Version: 6.00 Build 0)  -->
<svg version="1.2" baseProfile="tiny" id="Layer_1" xmlns="http://www.w3.org/2000/svg" xmlns:xlink="http://www.w3.org/1999/xlink"
	 x="0px" y="0px" viewBox="0 0 143.7 79.5" xml:space="preserve">
<path fill="#3C2210" d="M71.6,9.4h0.5v-3h1.1L73.3,6h-2.8v0.4h1.2L71.6,9.4z M74.1,6.8l1.2,1.8h0.3l1.2-1.8v2.6l0.5-0.1V6h-0.4
	l-1.3,2l-1.3-2h-0.5v3.3h0.4L74.1,6.8z"/>
<path fill="#3C2210" d="M78.2,42.3c-0.4,0.6-0.9,0.9-1.6,1h-0.5c-1.2,0-2.3-0.6-2.9-1.5l-0.1-0.1c-0.8-1-1.9-1.7-3.2-2
	c1.3-0.3,2.4-1,3.2-2l0.1-0.2c0.7-0.9,1.7-1.4,2.9-1.4c2.6,0,2.8,2.8,2.8,3.6C78.9,40.8,78.7,41.7,78.2,42.3z M75.4,47.4
	c2.5,0.8,1.8,3.5,1.6,4.3c-0.3,1-0.8,1.8-1.5,2.3s-1.5,0.6-2.3,0.3c-1.1-0.4-2-1.2-2.3-2.3v-0.2c-0.4-1.2-1.2-2.2-2.4-2.9
	c0.5,0.1,1,0,1.4,0c0.8-0.1,1.5-0.4,2.2-0.9l0.2-0.1C73.2,47.3,74.3,47.1,75.4,47.4L75.4,47.4z M69.6,54.8c-0.5,1-1,1.7-1.8,2h-0.1
	c-0.2,0.1-0.4,0.1-0.6,0.1c-0.9,0.1-1.9,0-2.7-0.4c-2.1-1.1-3-3.5-2-5.4s3.5-2.6,5.6-1.6c1.1,0.5,1.9,1.4,2.2,2.5l0.1,0.2
	C70.3,53.1,70.1,53.8,69.6,54.8z M71.3,58c2.1,1.5,0.7,3.9,0.2,4.6c-0.6,0.9-1.3,1.4-2.1,1.7c-0.1,0-0.3,0.1-0.4,0.1
	c-0.7,0.1-1.3-0.1-1.9-0.5c-0.9-0.7-1.5-1.8-1.5-2.9v-0.2c0-1.3-0.5-2.5-1.4-3.5c1.2,0.5,2.5,0.6,3.7,0.2l0.2-0.1
	C69.2,57.2,70.4,57.4,71.3,58L71.3,58z M64.7,60.8V61c0,0.8-0.5,1.5-1.3,2.3c-0.7,0.7-1.3,1.2-2,1.3H61c-1.1,0-2.2-0.5-3.1-1.3
	c-1.7-1.7-1.8-4.2-0.2-5.8c1.5-1.5,4.1-1.4,5.8,0.2C64.3,58.5,64.7,59.6,64.7,60.8z M64.1,66.8c1.5,2.1-0.6,3.9-1.3,4.4
	s-1.4,0.8-2.1,0.9h-0.5c-0.8,0-1.5-0.4-2.1-1.1c-0.7-0.9-0.9-2.2-0.5-3.3l0.1-0.2c0.4-1.2,0.3-2.5-0.2-3.7c1,0.9,2.2,1.4,3.5,1.4
	h0.2C62.4,65.4,63.4,65.9,64.1,66.8z M57,67.4l-0.1,0.2c-0.3,0.8-1,1.3-1.9,1.8c-0.6,0.3-1.1,0.5-1.6,0.6c-0.3,0.1-0.7,0-1-0.1h-0.1
	c-1.1-0.4-2-1.1-2.5-2.2c-1.1-2.1-0.4-4.6,1.6-5.6c1.9-1,4.4-0.1,5.4,2C57.2,65.1,57.3,66.3,57,67.4z M54.5,73
	c0.8,2.5-1.8,3.6-2.6,3.8C51.6,76.9,51.3,77,51,77c-0.6,0.1-1.2,0.1-1.8-0.1c-0.8-0.3-1.4-0.8-1.6-1.7c-0.4-1.1-0.2-2.3,0.5-3.3
	l0.1-0.1c0.7-1,1.1-2.3,0.9-3.6c0.6,1.1,1.7,2,2.9,2.4l0.2,0.1C53.3,71,54.2,71.9,54.5,73z M45.1,72.6c-1.1,0.2-1.9,0.2-2.7-0.3
	l-0.1-0.1c-0.9-0.7-1.5-1.7-1.7-2.9c-0.4-2.3,1.1-4.5,3.2-4.8c2.1-0.3,4.2,1.3,4.5,3.6c0.2,1.2-0.1,2.3-0.7,3.3l-0.1,0.1
	C47,72.1,46.2,72.4,45.1,72.6z M40.8,78.6c-0.4,0.1-0.7,0.1-0.9,0.1c-1.1,0-2-0.2-2.6-0.7c-0.7-0.5-1-1.2-1-2.1
	c0-1.2,0.6-2.3,1.5-2.9l0.1-0.1c1-0.8,1.7-1.9,2-3.1c0.3,1.3,1,2.4,2,3.2l0.2,0.1c0.9,0.7,1.4,1.7,1.4,2.9
	C43.5,77.8,41.9,78.4,40.8,78.6z M34.6,72.6c-1.1-0.2-1.9-0.4-2.4-1.1c0,0,0-0.1-0.1-0.1c-0.7-0.9-0.9-2.1-0.7-3.3
	c0.4-2.3,2.4-3.9,4.5-3.6s3.6,2.5,3.2,4.8c-0.2,1.2-0.8,2.2-1.7,2.9l-0.1,0.1c-0.3,0.2-0.6,0.3-0.9,0.4
	C35.8,72.7,35.3,72.7,34.6,72.6z M32.1,75.2c-0.4,1.2-1.2,1.7-2.1,1.8c-0.9,0.1-1.8-0.1-2.3-0.2c-1-0.3-1.8-0.8-2.3-1.5
	s-0.6-1.5-0.3-2.3c0.4-1.1,1.2-2,2.3-2.3l0.2-0.1c1.2-0.4,2.2-1.2,2.9-2.4c-0.1,1.3,0.2,2.6,0.9,3.6l0.1,0.2
	C32.3,73,32.5,74.1,32.1,75.2z M24.7,69.4c-1-0.5-1.7-1-2-1.8v-0.1c-0.3-1.1-0.2-2.3,0.3-3.3c1.1-2.1,3.5-3,5.4-2s2.6,3.5,1.6,5.6
	c-0.5,1.1-1.4,1.8-2.5,2.2c0,0-0.3,0.1-0.4,0.1C26.3,70.1,25.6,69.8,24.7,69.4z M22,67.7l0.1,0.2c0.3,1.1,0.1,2.3-0.5,3.2
	c-1.5,2.1-3.9,0.7-4.6,0.2c-0.9-0.6-1.4-1.3-1.7-2.1c-0.3-0.8-0.1-1.6,0.4-2.3c0.7-0.9,1.8-1.5,2.9-1.5h0.2c0.3,0,0.5,0,0.8-0.1
	c1-0.2,1.9-0.6,2.7-1.3C21.7,65.2,21.6,66.5,22,67.7L22,67.7z M16.3,63.2c-0.8-0.8-1.3-1.5-1.3-2.3v-0.1c0-1.1,0.5-2.2,1.3-3.1
	c1.7-1.7,4.3-1.8,5.8-0.2c1.5,1.5,1.4,4.1-0.2,5.8c-0.7,0.7-1.5,1.1-2.4,1.3c-0.3-0.1-0.5-0.1-0.8-0.1h-0.2
	C17.7,64.5,17.1,64,16.3,63.2z M14.2,60.8V61c0,1.1-0.6,2.2-1.5,2.9c-0.4,0.3-0.8,0.5-1.2,0.5c-1.6,0.3-2.8-1.2-3.2-1.8
	c-0.6-0.9-1-1.7-1-2.5s0.4-1.5,1.1-2.1c0.9-0.7,2.2-0.9,3.3-0.5l0.2,0.1c1.2,0.4,2.5,0.3,3.7-0.2C14.7,58.3,14.2,59.5,14.2,60.8z
	 M10.2,54.8c-0.5-1-0.8-1.8-0.5-2.6v-0.1c0.4-1.1,1.1-2,2.2-2.5c2.1-1.1,4.6-0.4,5.6,1.6c1,1.9,0.1,4.3-2,5.4
	c-0.4,0.2-0.9,0.4-1.4,0.4c-0.7,0.1-1.3,0.1-2-0.1H12C11.1,56.5,10.7,55.8,10.2,54.8z M8.9,51.9l-0.1,0.2c-0.4,1.1-1.2,1.9-2.3,2.3
	c-0.2,0-0.3,0-0.5,0.1c-2.1,0.3-3.1-1.9-3.3-2.7c-0.3-1-0.4-1.9-0.1-2.7s0.8-1.4,1.7-1.6c1.1-0.4,2.3-0.2,3.3,0.5l0.1,0.1
	c1,0.7,2.3,1.1,3.6,0.9C10.2,49.6,9.3,50.6,8.9,51.9z M6.5,41.9c-0.6,0.8-1.4,1.2-2.3,1.4H3.6c-2.6,0-2.8-2.8-2.8-3.6
	c0-1.1,0.2-2,0.7-2.6c0.5-0.7,1.2-1,2.1-1c1.2,0,2.3,0.6,2.9,1.5l0.1,0.1c0.8,1,1.9,1.7,3.2,2c-1.3,0.3-2.4,1-3.2,2
	C6.6,41.8,6.5,41.9,6.5,41.9z M6,32.1c-0.6,0.1-1.1,0-1.7-0.1c-2.5-0.8-1.8-3.5-1.6-4.3c0.3-1,0.8-1.8,1.5-2.3s1.5-0.6,2.3-0.3
	c1.1,0.4,2,1.2,2.3,2.3l0.1,0.2c0.4,1.2,1.2,2.2,2.4,2.9c-1.3-0.1-2.6,0.2-3.6,0.9l-0.2,0.1C7,31.9,6.5,32.1,6,32.1z M10.2,24.6
	c0.5-1,1-1.7,1.8-2h0.1c1.1-0.3,2.3-0.2,3.3,0.3c2.1,1.1,3,3.5,2,5.4c-0.6,1.1-1.6,1.8-2.8,2c-0.9,0.1-1.8,0-2.7-0.4
	c-1.1-0.5-1.9-1.4-2.2-2.5l-0.1-0.2C9.4,26.4,9.6,25.6,10.2,24.6z M8.4,21.4c-2.1-1.5-0.7-3.9-0.2-4.6c0.6-0.9,1.3-1.4,2.1-1.7
	c0.8-0.3,1.6-0.1,2.3,0.4c0.9,0.7,1.5,1.8,1.5,2.9v0.2c0,1.3,0.5,2.5,1.4,3.5c-1.2-0.5-2.5-0.6-3.7-0.2c0,0-0.5,0.2-0.7,0.2
	C10.2,22.2,9.2,22,8.4,21.4z M15,18.7v-0.2c0-0.8,0.5-1.5,1.3-2.3c0.8-0.8,1.5-1.3,2.3-1.3h0.1c1.1,0,2.2,0.5,3.1,1.3
	c1.7,1.7,1.8,4.2,0.2,5.8c-1.5,1.5-4.1,1.4-5.8-0.2C15.4,20.9,15,19.8,15,18.7z M15.6,12.6c-1.6-2.1,0.6-3.9,1.3-4.4
	c0.9-0.6,1.7-1,2.5-1s1.5,0.4,2.1,1.1c0.7,0.9,0.9,2.2,0.5,3.3l-0.1,0.2c-0.4,1.2-0.3,2.5,0.2,3.7c-1-0.9-2.2-1.4-3.5-1.4h-0.2
	C17.3,14.1,16.3,13.5,15.6,12.6z M22.7,12l0.1-0.2c0.3-0.8,1-1.3,2-1.8s1.8-0.8,2.6-0.5h0.1c1.1,0.4,2,1.1,2.5,2.2
	c1.1,2.1,0.4,4.6-1.6,5.6c-1.9,1-4.4,0.1-5.4-2C22.5,14.3,22.4,13.1,22.7,12z M25.2,6.5C24.4,4,27,2.9,27.8,2.7
	c1-0.3,1.9-0.4,2.7-0.1s1.4,0.8,1.6,1.7c0.4,1.1,0.2,2.3-0.5,3.3l-0.1,0.1c-0.7,1-1.1,2.3-0.9,3.6c-0.6-1.1-1.7-2-2.9-2.4l-0.2-0.1
	C26.4,8.4,25.6,7.6,25.2,6.5z M34.6,6.9c1.1-0.2,1.9-0.2,2.7,0.3c0,0,0.1,0,0.1,0.1c0.9,0.7,1.5,1.7,1.7,2.9
	c0.4,2.3-1.1,4.5-3.2,4.8c-2.1,0.3-4.2-1.3-4.5-3.6c-0.2-1.2,0.1-2.3,0.7-3.3L32.2,8C32.8,7.3,33.5,7.1,34.6,6.9z M39.9,0.8
	c1.1,0,2,0.2,2.6,0.7c0.7,0.5,1,1.2,1,2.1c0,1.2-0.6,2.3-1.5,2.9l-0.2,0.1c-1,0.8-1.7,1.9-2,3.1c-0.3-1.3-1-2.4-2-3.2l-0.2-0.1
	c-0.9-0.7-1.4-1.7-1.4-2.9C36.2,1,39,0.8,39.9,0.8z M45.1,6.9C46.2,7.1,47,7.3,47.5,8l0.1,0.1c0.7,0.9,0.9,2.1,0.7,3.3
	c-0.4,2.3-2.4,3.9-4.5,3.6c-2.1-0.3-3.6-2.5-3.2-4.8C40.8,9,41.4,8,42.3,7.3l0.1-0.1C43.1,6.7,44,6.7,45.1,6.9z M47.6,4.2
	c0.8-2.5,3.5-1.8,4.3-1.6c1,0.3,1.8,0.8,2.3,1.5s0.6,1.5,0.3,2.3c-0.4,1.1-1.2,2-2.3,2.3L52,8.8c-1.2,0.4-2.2,1.2-2.9,2.4
	c0.1-1.3-0.2-2.6-0.9-3.6l-0.1-0.2C47.4,6.5,47.2,5.3,47.6,4.2z M55,10.1c1,0.5,1.7,1,2,1.8V12c0.3,1.1,0.2,2.3-0.3,3.3
	c-1.1,2.1-3.5,3-5.4,2s-2.6-3.5-1.6-5.6c0.5-1.1,1.4-1.8,2.5-2.2l0.2-0.1C53.2,9.3,54,9.6,55,10.1z M57.7,11.8l-0.1-0.2
	c-0.3-1.1-0.1-2.3,0.5-3.2c1.5-2.1,3.9-0.7,4.6-0.2c0.9,0.6,1.4,1.3,1.7,2.1s0.1,1.6-0.4,2.3c-0.7,0.9-1.8,1.5-2.9,1.5h-0.2
	c-1.3,0-2.5,0.5-3.5,1.4C58,14.3,58.1,13,57.7,11.8z M63.4,16.2c0.8,0.8,1.3,1.5,1.3,2.3v0.1c0,1.1-0.5,2.2-1.3,3.1
	c-0.7,0.7-1.6,1.1-2.5,1.3c-1.2,0.2-2.4-0.1-3.3-1c-1.5-1.5-1.4-4.1,0.2-5.8c0.8-0.8,1.9-1.3,3.1-1.3h0.2
	C62,14.9,62.6,15.4,63.4,16.2z M65.5,18.6v-0.2c0-1.1,0.6-2.2,1.5-2.9c2.1-1.5,3.9,0.6,4.4,1.3c0.6,0.9,1,1.7,1,2.5
	s-0.4,1.5-1.1,2.1c-0.9,0.7-2.2,0.9-3.3,0.5l-0.2-0.1c-1.2-0.4-2.5-0.3-3.7,0.2C65,21.2,65.5,19.9,65.5,18.6z M69.5,24.6
	c0.5,1,0.8,1.8,0.5,2.6v0.1c-0.4,1.1-1.1,2-2.2,2.5c-0.4,0.2-0.9,0.4-1.4,0.4c-1.7,0.3-3.4-0.5-4.2-2c-1-1.9-0.1-4.3,2-5.4
	c1.1-0.5,2.3-0.6,3.3-0.3l0.2,0.1C68.6,23,69,23.6,69.5,24.6z M69.5,39c-2.3,0.4-4.5-1.1-4.8-3.2c-0.3-2.1,1.3-4.2,3.6-4.5
	c1.2-0.2,2.3,0.1,3.3,0.7l0.1,0.1c0.7,0.5,0.9,1.3,1.1,2.4c0.2,1.1,0.2,1.9-0.3,2.7c0,0,0,0.1-0.1,0.1C71.7,38.2,70.7,38.8,69.5,39z
	 M64.7,43.6c0.3-2.1,2.5-3.6,4.8-3.2c1.2,0.2,2.2,0.8,2.9,1.7l0.1,0.1c0.5,0.7,0.5,1.5,0.3,2.6s-0.4,1.9-1.1,2.4l-0.1,0.1
	c-0.5,0.4-1.2,0.6-1.8,0.7c-0.5,0.1-0.9,0.1-1.4,0C66,47.8,64.4,45.8,64.7,43.6z M60.8,47.2C60.8,47.2,60.7,47.2,60.8,47.2L57,45.3
	h-0.1H57l4.2,0.7c0.8,0.1,1.5-0.1,2-0.6l0.6-0.6c0.2,1.5,1.1,2.8,2.4,3.6c-1.5-0.2-3.1,0.4-4.1,1.4L62,48.9
	C62,48.2,61.5,47.6,60.8,47.2z M61.5,50.7c-0.1,0.2-0.2,0.3-0.4,0.4L60,51.7c-0.1,0.1-0.2,0.1-0.4,0.1c-0.3,0.1-0.7,0-1.1-0.2
	c-0.5-0.2-0.8-0.7-0.9-1.1l-0.2-1.2c-0.1-0.4,0.1-0.7,0.5-0.9l1.1-0.5c0.4-0.2,0.9-0.2,1.3,0l0.1,0.1c0.5,0.2,0.8,0.7,0.9,1.1
	l0.2,1.2C61.6,50.4,61.6,50.6,61.5,50.7z M55.3,57.3c-0.4,0.1-0.9-0.1-1.3-0.5s-0.6-0.9-0.5-1.3l0.2-1.2c0.1-0.4,0.3-0.7,0.7-0.7
	l1.2-0.2c0.4-0.1,0.9,0.1,1.2,0.4l0.1,0.1c0.4,0.4,0.6,0.9,0.5,1.3l-0.2,1.2c0,0.2-0.1,0.4-0.2,0.5c-0.1,0.1-0.3,0.2-0.5,0.2
	L55.3,57.3z M49.1,61.2c-0.4-0.1-0.9-0.4-1.1-0.9c-0.2-0.5-0.3-1-0.1-1.4l0.6-1.1c0.2-0.4,0.5-0.5,0.9-0.5l1.2,0.2
	c0.4,0.1,0.8,0.4,1,0.8l0.1,0.1c0.2,0.5,0.3,1,0.1,1.4l-0.6,1.1c-0.1,0.2-0.2,0.3-0.4,0.4c-0.1,0-0.2,0.1-0.2,0.1h-0.3
	C50.3,61.4,49.1,61.2,49.1,61.2z M42,63c-0.4-0.2-0.7-0.7-0.8-1.2s0.1-1.1,0.4-1.4l0.9-0.9c0.3-0.3,0.7-0.3,1-0.2l1.1,0.6
	c0.4,0.2,0.6,0.6,0.7,1.1v0.1c0.1,0.5-0.1,1.1-0.4,1.4L44,63.4c-0.1,0.1-0.3,0.2-0.5,0.3c-0.2,0-0.4,0-0.5-0.1
	C43.1,63.6,42,63,42,63z M38,63.7c0.6-0.3,1-1,1.2-1.7v-0.1l0.7-4.1v-0.1v0.1l0.7,4.2c0.1,0.8,0.6,1.4,1.2,1.8l0.8,0.4
	c-1.3,0.6-2.3,1.9-2.6,3.4c-0.3-1.5-1.3-2.8-2.6-3.4C37.4,64.2,38,63.7,38,63.7z M34.7,62.6c-0.3-0.3-0.4-0.8-0.4-1.4
	c0.1-0.5,0.4-1,0.8-1.2l1.1-0.6c0.4-0.2,0.7-0.1,1,0.2l0.9,0.9c0.3,0.3,0.4,0.8,0.4,1.2v0.1c-0.1,0.5-0.4,1-0.8,1.2l-1.1,0.6
	c-0.1,0-0.2,0.1-0.3,0.1h-0.2c-0.2,0-0.3-0.1-0.5-0.3L34.7,62.6z M28,58.4c0.3-0.5,0.7-0.8,1.1-0.9l1.2-0.2c0.4-0.1,0.7,0.1,0.9,0.5
	l0.5,1.1c0.2,0.4,0.2,0.9,0,1.3l-0.1,0.1c-0.3,0.5-0.7,0.8-1.1,0.9l-1.2,0.2c-0.2,0-0.4,0-0.5-0.1c-0.2-0.1-0.3-0.2-0.4-0.4
	l-0.5-1.1C27.7,59.5,27.7,58.9,28,58.4z M22.8,53.8c0.4-0.4,0.9-0.6,1.3-0.5l1.2,0.2c0.4,0.1,0.7,0.3,0.7,0.7l0.2,1.2
	c0.1,0.4-0.1,0.9-0.4,1.2l-0.1,0.1c-0.3,0.3-0.6,0.5-1,0.5h-0.4L23.1,57c-0.2,0-0.4-0.1-0.5-0.2c-0.1-0.1-0.2-0.3-0.2-0.5l-0.2-1.2
	C22.2,54.7,22.4,54.2,22.8,53.8z M18.1,50.2l0.2-1.2c0.1-0.4,0.4-0.9,0.9-1.1c0.5-0.2,1-0.3,1.4-0.1l1.1,0.5
	c0.4,0.2,0.5,0.5,0.5,0.9L22,50.5c-0.1,0.4-0.4,0.8-0.8,1l-0.1,0.1c-0.2,0.1-0.4,0.2-0.6,0.2c-0.3,0-0.6,0-0.9-0.1l-1.1-0.6
	c-0.2-0.1-0.3-0.2-0.4-0.4C18.1,50.7,18.1,50.2,18.1,50.2z M15.8,44.8l0.6,0.6c0.5,0.5,1.3,0.7,2,0.6h0.1l4.1-0.6l-3.8,1.9
	c-0.7,0.4-1.2,1-1.3,1.6l-0.1,0.9c-1-1.1-2.5-1.6-4.1-1.4C14.7,47.5,15.6,46.2,15.8,44.8z M15,43.7c0.3,2.1-1.3,4.2-3.6,4.5
	c-1.2,0.2-2.3-0.1-3.3-0.7L8,47.4c-0.7-0.5-0.9-1.3-1.1-2.4c-0.2-1.1-0.2-1.9,0.3-2.7l0.1-0.1c0.7-1,1.7-1.6,2.9-1.7
	C12.5,40.1,14.7,41.5,15,43.7z M18.9,32.2c0,0,0.1,0,0.1,0.1l3.7,1.9l-4.2-0.7c-0.8-0.1-1.5,0.1-2,0.6l-0.6,0.6
	c-0.2-1.5-1.1-2.8-2.4-3.6h1.4c1-0.2,2-0.6,2.7-1.4l0.1,0.9C17.7,31.2,18.2,31.9,18.9,32.2z M18.2,28.7c0.1-0.2,0.2-0.3,0.4-0.4
	l1.1-0.5c0.4-0.2,0.9-0.2,1.4,0.1c0.5,0.2,0.8,0.7,0.9,1.1l0.2,1.2c0.1,0.4-0.1,0.7-0.5,0.9l-1.1,0.5c-0.1,0.1-0.2,0.1-0.3,0.1
	c-0.3,0-0.6,0-1-0.1l-0.1-0.1c-0.5-0.2-0.8-0.7-0.9-1.1l-0.2-1.2C18.1,29,18.1,28.9,18.2,28.7z M24.4,22.2c0.4-0.1,0.9,0.1,1.3,0.5
	s0.6,0.9,0.5,1.3L26,25.2c-0.1,0.4-0.3,0.7-0.7,0.7l-1.2,0.2c-0.4,0.1-0.9-0.1-1.2-0.4l-0.1-0.1c-0.4-0.4-0.6-0.9-0.5-1.3l0.2-1.2
	c0-0.2,0.1-0.4,0.2-0.5s0.3-0.2,0.5-0.2C23.2,22.3,24.4,22.2,24.4,22.2z M30.6,18.2c0.4,0.1,0.9,0.4,1.1,0.9s0.3,1,0.1,1.4l-0.6,1.1
	c-0.1,0.3-0.3,0.4-0.6,0.5h-0.3l-1.2-0.2c-0.4-0.1-0.8-0.4-1-0.8L28,21c-0.2-0.5-0.3-1-0.1-1.4l0.6-1.1c0.1-0.2,0.2-0.3,0.4-0.4
	c0.2-0.1,0.3-0.1,0.5-0.1C29.4,18,30.6,18.2,30.6,18.2z M37.7,16.4c0.4,0.2,0.7,0.7,0.8,1.2s-0.1,1.1-0.4,1.4l-0.9,0.9
	c-0.1,0.1-0.3,0.2-0.5,0.3c-0.2,0-0.4,0-0.5-0.1l-1.1-0.6c-0.4-0.2-0.6-0.6-0.7-1.1v-0.1c-0.1-0.5,0.1-1.1,0.4-1.4l0.9-0.9
	c0.1-0.1,0.3-0.2,0.5-0.3c0.2,0,0.4,0,0.5,0.1L37.7,16.4z M41.7,15.8c-0.6,0.3-1,1-1.2,1.7v0.1l-0.7,4.1l-0.6-4.2
	c-0.1-0.8-0.6-1.4-1.2-1.8l-0.8-0.4c1.3-0.6,2.3-1.9,2.6-3.4c0.3,1.5,1.3,2.8,2.6,3.4C42.5,15.4,41.7,15.8,41.7,15.8z M45,16.9
	c0.3,0.3,0.4,0.8,0.4,1.4c-0.1,0.5-0.4,1-0.8,1.2l-1.1,0.6c-0.1,0-0.2,0.1-0.3,0.1c-0.3,0-0.5,0-0.7-0.3L41.6,19
	c-0.3-0.3-0.4-0.8-0.4-1.3v-0.1c0.1-0.5,0.4-1,0.8-1.2l1.1-0.6c0.2-0.1,0.4-0.1,0.5-0.1s0.3,0.1,0.5,0.3L45,16.9z M51.7,21
	c-0.3,0.5-0.7,0.8-1.1,0.9l-1.2,0.2c-0.4,0.1-0.7-0.1-0.9-0.5l-0.5-1c-0.2-0.4-0.2-0.9,0-1.3l0.1-0.1c0.3-0.5,0.7-0.8,1.1-0.9
	l1.2-0.2c0.2,0,0.4,0,0.5,0.1c0.2,0.1,0.3,0.2,0.4,0.4l0.5,1.1C52,20,52,20.5,51.7,21z M56.9,25.6c-0.3,0.3-0.6,0.5-1,0.5h-0.4
	l-1.2-0.2c-0.4-0.1-0.7-0.3-0.7-0.7L53.4,24c-0.1-0.4,0.1-0.9,0.4-1.2l0.1-0.1c0.4-0.4,0.9-0.6,1.3-0.5l1.2,0.2
	c0.2,0,0.4,0.1,0.5,0.2s0.2,0.3,0.2,0.5l0.2,1.2C57.5,24.7,57.3,25.2,56.9,25.6z M61.6,29.3l-0.2,1.2c-0.1,0.4-0.4,0.9-0.9,1.1
	c-0.2,0.1-0.4,0.2-0.6,0.2c-0.3,0-0.6,0-0.9-0.1l-1.1-0.5c-0.4-0.2-0.5-0.5-0.5-0.9l0.2-1.2c0.1-0.4,0.4-0.8,0.8-1l0.1-0.1
	c0.5-0.2,1-0.3,1.4-0.1l1.1,0.6c0.2,0.1,0.3,0.2,0.4,0.4C61.6,28.9,61.6,29.1,61.6,29.3z M63.9,34.7l-0.6-0.6
	c-0.5-0.5-1.3-0.7-2-0.6h-0.1L57,34.2h-0.1H57l3.8-1.9c0.7-0.4,1.2-1,1.3-1.6l0.2-0.9c1,1.1,2.5,1.6,4.1,1.4
	C65,31.9,64.1,33.2,63.9,34.7z M62.1,40.4l-4.2-0.7h-0.1h0.1l4.2-0.7c0.8-0.1,1.4-0.6,1.7-1.2l0.4-0.8c0.6,1.3,1.9,2.3,3.4,2.6
	c-1.5,0.3-2.8,1.3-3.4,2.6l-0.4-0.8C63.6,41,62.9,40.5,62.1,40.4z M59.6,43.4c-0.2-0.4-0.1-0.7,0.2-1l0.9-0.9
	c0.3-0.3,0.8-0.4,1.3-0.4h0.1c0.5,0.1,1,0.4,1.2,0.8l0.6,1.1c0.1,0.2,0.1,0.4,0.1,0.5c0,0.2-0.1,0.3-0.3,0.5l-0.9,0.9
	c-0.2,0.2-0.5,0.3-0.8,0.4h-0.6c-0.5-0.1-1-0.4-1.2-0.8C60.1,44.4,59.6,43.4,59.6,43.4z M55.9,43.8l-0.6-1.1c-0.2-0.4-0.1-0.7,0.2-1
	l0.9-0.9c0.3-0.3,0.9-0.4,1.4-0.4l2.5,0.4l-0.1,0.1l-0.9,0.9c-0.3,0.3-0.4,0.6-0.5,0.9c-0.1,0.3,0,0.7,0.2,1l0.6,1.1
	c0,0.1,0.1,0.1,0.1,0.2l-2.6-0.5C56.6,44.5,56.1,44.2,55.9,43.8z M50.5,52.4l0.2-1.2c0.1-0.4,0.3-0.7,0.7-0.7l1.2-0.2
	c0.4-0.1,1,0.1,1.3,0.5l1.8,1.8h-0.2l-1.2,0.2c-0.4,0.1-0.7,0.2-0.9,0.4S53,53.7,53,54.1l-0.2,1.2v0.2L51,53.7
	C50.6,53.4,50.4,52.8,50.5,52.4z M49.3,50.6c-0.5,0.1-1.1-0.1-1.5-0.5c-0.7-0.7-0.7-1.8,0-2.4c0.7-0.7,1.8-0.7,2.4,0
	c0.7,0.7,0.7,1.8,0,2.4C50,50.4,49.7,50.6,49.3,50.6z M48.1,51.1c0.6,0.3,1.2,0.3,1.8,0.1l-0.2,1.2c-0.1,0.4,0,0.9,0.3,1.4
	c-0.3-0.4-0.8-0.6-1.2-0.7l-1.2-0.2C48,52.3,48.2,51.7,48.1,51.1z M46,55l0.5-1.1c0.2-0.4,0.5-0.5,0.9-0.5l1.2,0.2
	c0.4,0.1,0.9,0.4,1.1,0.9l1.1,2.2h-0.2l-1.2-0.2c-0.4-0.1-0.7,0-1,0.1s-0.5,0.4-0.7,0.7l-0.4,1.2c0,0.1-0.1,0.1-0.1,0.2l-1.1-2.2
	C45.8,56,45.8,55.4,46,55z M41,56.2l0.9-0.9c0.3-0.3,0.7-0.3,1-0.2l1.1,0.6c0.4,0.2,0.7,0.7,0.8,1.2l0.4,2.5l-0.1-0.1L44,58.7
	c-0.3-0.2-0.7-0.2-1-0.2c-0.3,0.1-0.6,0.2-0.9,0.5l-0.9,0.9L41.1,60l-0.4-2.5C40.5,57,40.7,56.5,41,56.2z M38.4,54.8
	c0.6-0.2,1.1-0.6,1.4-1.1c0.3,0.5,0.8,0.9,1.4,1.1l-0.8,0.8c-0.3,0.3-0.5,0.8-0.6,1.3c-0.1-0.5-0.3-0.9-0.6-1.3
	C39.2,55.6,38.4,54.8,38.4,54.8z M35,56.9c0.1-0.5,0.4-1,0.8-1.2l1.1-0.6c0.4-0.2,0.7-0.1,1,0.2l0.9,0.9c0.3,0.3,0.5,0.9,0.4,1.4
	L38.8,60l-0.1-0.1L37.8,59c-0.3-0.3-0.6-0.4-0.9-0.5c-0.3,0-0.7,0-1,0.2l-1.1,0.6c-0.1,0-0.1,0.1-0.2,0.1C34.6,59.4,35,56.9,35,56.9
	z M33.2,52.8c-0.8-0.4-1.2-1.5-0.8-2.3s1.5-1.2,2.3-0.7c0.8,0.4,1.2,1.5,0.8,2.3c-0.3,0.5-0.7,0.8-1.3,0.9
	C33.9,53.1,33.5,53,33.2,52.8z M29.9,54.6c0.3-0.5,0.7-0.8,1.1-0.9l1.2-0.2c0.4-0.1,0.7,0.1,0.9,0.5l0.5,1.1
	c0.2,0.4,0.2,0.9-0.1,1.4l-1.1,2.2c0-0.1,0-0.1-0.1-0.2l-0.4-1c-0.2-0.3-0.4-0.6-0.7-0.7c-0.3-0.1-0.6-0.2-1-0.1L29,56.8h-0.2
	C28.8,56.8,29.9,54.6,29.9,54.6z M30,52.3l-0.2-1.2c0.6,0.2,1.2,0.2,1.8-0.1c-0.1,0.6,0.1,1.2,0.5,1.7l-1.2,0.2
	c-0.4,0.1-0.9,0.3-1.2,0.7C29.9,53.2,30,52.8,30,52.3z M29.4,47.7c0.7-0.7,1.8-0.7,2.4,0c0.7,0.7,0.7,1.8,0,2.4
	c-0.3,0.3-0.6,0.4-0.9,0.5c-0.5,0.1-1.1-0.1-1.5-0.5C28.7,49.5,28.7,48.4,29.4,47.7z M25.8,50.8c0.4-0.4,0.9-0.6,1.3-0.5l1.2,0.2
	c0.4,0.1,0.7,0.3,0.7,0.7l0.2,1.2c0.1,0.4-0.1,1-0.5,1.3L27,55.5v-0.2l-0.2-1.2c-0.1-0.4-0.2-0.7-0.4-0.9c-0.2-0.2-0.5-0.4-0.9-0.4
	l-1.2-0.2h-0.2C24,52.6,25.8,50.8,25.8,50.8z M20.2,44.8l0.6-1.1c0.2-0.3,0.2-0.7,0.2-1c-0.1-0.3-0.2-0.6-0.5-0.9l-0.9-0.9l-0.1-0.1
	l2.5-0.4c0.5-0.1,1.1,0.1,1.4,0.4l0.9,0.9c0.3,0.3,0.3,0.7,0.2,1l-0.6,1.1c-0.2,0.4-0.7,0.7-1.2,0.8L20.2,45V44.8z M15.9,43l0.6-1.1
	c0.2-0.4,0.7-0.7,1.2-0.8s1.1,0.1,1.4,0.4l0.9,0.9c0.3,0.3,0.3,0.7,0.2,1l-0.6,1.1c-0.2,0.4-0.6,0.6-1.1,0.7h-0.1
	c-0.5,0.1-1.1-0.1-1.4-0.4l-0.9-0.9c-0.1-0.1-0.2-0.3-0.3-0.5C15.8,43.3,15.8,43.2,15.9,43z M17.6,39h0.1l4.1,0.7l-4.2,0.7
	c-0.8,0.1-1.4,0.6-1.8,1.2l-0.4,0.8c-0.6-1.3-1.9-2.3-3.4-2.6c1.5-0.3,2.8-1.3,3.4-2.6l0.4,0.8C16.1,38.5,16.8,38.9,17.6,39z
	 M20.1,36.1c0.2,0.4,0.1,0.7-0.2,1L19,38c-0.2,0.2-0.5,0.3-0.8,0.4h-0.6c-0.5-0.1-1-0.4-1.2-0.8l-0.6-1.1c-0.1-0.2-0.1-0.4-0.1-0.5
	c0-0.2,0.1-0.3,0.3-0.5l0.9-0.9c0.3-0.3,0.8-0.4,1.4-0.4c0.5,0.1,1,0.4,1.2,0.8C19.6,35,20.1,36.1,20.1,36.1z M23.8,35.7l0.6,1.1
	c0.2,0.4,0.1,0.7-0.2,1l-0.9,0.9c-0.2,0.2-0.5,0.3-0.8,0.4h-0.6l-2.5-0.4l0.1-0.1l0.9-0.9c0.3-0.3,0.4-0.6,0.5-0.9
	c0.1-0.3,0-0.7-0.2-1l-0.6-1.1c0-0.1-0.1-0.1-0.1-0.2l2.5,0.4C23.1,35,23.6,35.3,23.8,35.7z M29.2,27.1L29,28.3
	c-0.1,0.4-0.3,0.7-0.7,0.7l-1.2,0.2c-0.4,0.1-1-0.1-1.3-0.5L24,26.9h0.2l1.2-0.2c0.4-0.1,0.7-0.2,0.9-0.4c0.2-0.2,0.4-0.5,0.4-0.9
	l0.2-1.2V24l1.8,1.8C29.1,26.1,29.3,26.6,29.2,27.1z M31.8,29.3c0.7,0.7,0.7,1.8,0,2.4c-0.3,0.3-0.6,0.4-0.9,0.5
	c-0.5,0.1-1.1-0.1-1.5-0.5c-0.7-0.7-0.7-1.8,0-2.4C30.1,28.6,31.2,28.6,31.8,29.3z M31.6,28.4c-0.6-0.3-1.2-0.3-1.8-0.1l0.2-1.2
	c0.1-0.4,0-0.9-0.3-1.4c0.3,0.4,0.8,0.6,1.2,0.7l1.2,0.2C31.7,27.2,31.5,27.8,31.6,28.4z M33.7,24.4l-0.6,1.1
	c-0.2,0.4-0.5,0.5-0.9,0.5L31,25.7c-0.4-0.1-0.9-0.4-1.1-0.9l-1.1-2.2H29l1.2,0.2h0.5c0.2,0,0.3-0.1,0.5-0.1
	c0.3-0.1,0.5-0.4,0.7-0.7l0.6-1.1c0-0.1,0-0.1,0.1-0.2l1.1,2.2C33.9,23.5,33.9,24,33.7,24.4z M38.7,23.3l-0.9,0.9
	c-0.1,0.1-0.3,0.2-0.5,0.3c-0.2,0-0.4,0-0.5-0.1l-1.1-0.6c-0.3-0.3-0.6-0.8-0.7-1.3L34.6,20l0.1,0.1l1.1,0.6c0.3,0.2,0.7,0.2,1,0.2
	c0.3-0.1,0.6-0.2,0.9-0.5l0.9-0.9l0.1-0.1l0.4,2.5C39.2,22.4,39,22.9,38.7,23.3z M41.3,24.6c-0.6,0.2-1.1,0.6-1.4,1.1
	c-0.3-0.5-0.8-0.9-1.4-1.1l0.8-0.8c0.3-0.3,0.5-0.8,0.6-1.3c0.1,0.5,0.3,0.9,0.6,1.3C40.5,23.8,41.3,24.6,41.3,24.6z M44.7,22.5
	c-0.1,0.5-0.4,1-0.8,1.2l-1.1,0.6c-0.1,0-0.2,0.1-0.3,0.1c-0.3,0-0.5,0-0.7-0.3l-0.9-0.9c-0.3-0.3-0.4-0.8-0.4-1.4l0.4-2.4l0.1,0.1
	l0.9,0.9c0.3,0.3,0.6,0.4,0.9,0.5c0.3,0,0.7,0,1-0.2l1.1-0.6c0.1,0,0.1-0.1,0.2-0.1C45.1,20,44.7,22.5,44.7,22.5z M46.6,26.6
	c0.8,0.4,1.2,1.5,0.7,2.3c-0.3,0.5-0.7,0.8-1.3,0.9c-0.3,0.1-0.7,0-1-0.2c-0.8-0.4-1.2-1.5-0.8-2.3C44.7,26.5,45.7,26.2,46.6,26.6z
	 M49.8,24.8c-0.3,0.5-0.7,0.8-1.1,0.9l-1.2,0.2c-0.4,0.1-0.7-0.1-0.9-0.5l-0.6-1c-0.2-0.4-0.2-0.9,0.1-1.4l1.1-2.2
	c0,0.1,0,0.1,0.1,0.2l0.5,1.1c0.2,0.3,0.4,0.6,0.7,0.7s0.6,0.2,1,0.1l1.2-0.2h0.2C50.9,22.6,49.8,24.8,49.8,24.8z M49.7,27.1
	l0.2,1.2c-0.6-0.2-1.2-0.2-1.8,0.1c0.1-0.6-0.1-1.2-0.5-1.7l1.2-0.2c0.4-0.1,0.9-0.3,1.2-0.7C49.8,26.2,49.7,26.7,49.7,27.1z
	 M50.3,31.7c-0.3,0.3-0.6,0.4-0.9,0.5c-0.5,0.1-1.1-0.1-1.5-0.5c-0.7-0.7-0.7-1.8,0-2.4c0.7-0.7,1.8-0.7,2.4,0
	C51,30,51,31.1,50.3,31.7z M53.9,28.6c-0.3,0.3-0.6,0.5-1,0.5h-0.4l-1.2-0.2c-0.4-0.1-0.7-0.3-0.7-0.7L50.4,27
	c-0.1-0.4,0.1-1,0.5-1.3l1.8-1.7v0.2l0.2,1.2c0.1,0.4,0.2,0.7,0.4,0.9c0.2,0.2,0.5,0.4,0.9,0.4l1.2,0.2h0.2
	C55.7,26.9,53.9,28.6,53.9,28.6z M55,41.1c-0.2-0.6-0.6-1.1-1.1-1.4c0.5-0.3,0.9-0.8,1.1-1.4l0.8,0.8c0.3,0.3,0.8,0.5,1.3,0.6
	c-0.5,0.1-0.9,0.3-1.3,0.6C55.9,40.3,55,41.1,55,41.1z M54.7,43l0.5,1c0.2,0.4,0.6,0.7,1,0.9c-0.5-0.1-1,0-1.4,0.2l-1.1,0.5
	c0-0.6-0.2-1.2-0.6-1.7C53.8,43.9,54.4,43.6,54.7,43z M49.9,44.9c0.4-0.8,1.5-1.2,2.3-0.8s1.2,1.5,0.8,2.3c-0.3,0.5-0.7,0.8-1.3,0.9
	c-0.3,0.1-0.7,0-1-0.2C49.8,46.7,49.5,45.7,49.9,44.9z M48.9,44c-0.7-0.2-1-0.9-0.8-1.6c0.1-0.3,0.3-0.6,0.6-0.7
	c0.3-0.2,0.6-0.2,1-0.1c0.7,0.2,1,0.9,0.8,1.6c0,0.1,0,0.1-0.1,0.2c-0.1,0.2-0.3,0.4-0.6,0.5C49.7,44,49.6,44,49.4,44
	C49.2,44.1,49,44,48.9,44z M47.1,46.5c-0.6-0.4-0.7-1.2-0.3-1.8c0.2-0.3,0.5-0.5,0.8-0.5c0.3-0.1,0.7,0,0.9,0.2
	c0.6,0.4,0.7,1.2,0.3,1.8c0,0.1-0.1,0.1-0.1,0.2c-0.2,0.2-0.4,0.3-0.7,0.4C47.7,46.8,47.4,46.7,47.1,46.5z M45,49.8
	c0.8-0.4,1.9-0.1,2.3,0.7c0.4,0.8,0.1,1.9-0.7,2.3c-0.2,0.1-0.3,0.1-0.5,0.2c-0.7,0.1-1.5-0.2-1.8-0.9C43.8,51.3,44.1,50.2,45,49.8z
	 M43.3,50.3h-0.2c-0.3,0-0.5,0-0.8-0.1c-0.3-0.2-0.5-0.4-0.6-0.7c-0.2-0.7,0.1-1.4,0.8-1.6c0.3-0.1,0.7-0.1,1,0.1
	c0.3,0.2,0.5,0.4,0.6,0.7C44.3,49.4,44,50.1,43.3,50.3z M41.6,50.9c0.9-0.1,1.8,0.5,2,1.4c0.1,0.9-0.5,1.8-1.4,2
	c-0.9,0.1-1.8-0.5-2-1.4C40,51.9,40.7,51,41.6,50.9z M39,50.5c-0.2-0.2-0.4-0.6-0.4-0.9c0-0.7,0.6-1.3,1.3-1.3
	c0.3,0,0.7,0.1,0.9,0.4c0.2,0.2,0.4,0.6,0.4,0.9c0,0.6-0.5,1.2-1.1,1.3h-0.4C39.4,50.8,39.1,50.7,39,50.5z M36.1,52.3
	c0.1-0.9,1-1.6,2-1.4c0.9,0.1,1.6,1,1.4,2c-0.1,0.8-0.7,1.3-1.4,1.4h-0.5C36.6,54.1,36,53.2,36.1,52.3z M35.6,48.7
	c0.2-0.7,0.9-1,1.6-0.8c0.3,0.1,0.6,0.3,0.7,0.6c0.2,0.3,0.2,0.6,0.1,1c-0.2,0.5-0.6,0.8-1,0.9h-0.6c-0.1,0-0.1,0-0.2-0.1
	c-0.2-0.1-0.4-0.3-0.6-0.6C35.5,49.4,35.5,49,35.6,48.7z M46.7,47c0.4,0.6,0.3,1.4-0.3,1.8c-0.1,0-0.1,0.1-0.2,0.1
	C46.1,49,46,49,45.8,49h-0.4c-0.3-0.1-0.6-0.2-0.8-0.5c-0.4-0.6-0.3-1.4,0.3-1.8c0.3-0.2,0.6-0.3,0.9-0.2
	C46.2,46.5,46.5,46.7,46.7,47z M46.7,32.5c-0.2,0.3-0.5,0.5-0.8,0.5s-0.7,0-0.9-0.2c-0.3-0.2-0.5-0.5-0.5-0.8
	c-0.1-0.3,0-0.7,0.2-0.9c0.4-0.6,1.2-0.7,1.8-0.3c0.1,0,0.1,0.1,0.2,0.1c0.2,0.2,0.3,0.4,0.4,0.7C47,31.9,46.9,32.2,46.7,32.5z
	 M49.1,34.1c-0.1,0.3-0.2,0.6-0.5,0.8c-0.2,0.1-0.4,0.2-0.5,0.2c-0.5,0.1-0.9-0.1-1.2-0.5c-0.2-0.3-0.3-0.6-0.2-0.9
	c0.1-0.3,0.2-0.6,0.5-0.8c0.6-0.4,1.4-0.3,1.8,0.3c0,0.1,0.1,0.1,0.1,0.2C49.1,33.4,49.1,34.1,49.1,34.1z M50.5,36.3v0.2
	c0,0.3,0,0.5-0.1,0.8c-0.2,0.3-0.4,0.5-0.7,0.6h-0.2c-0.6,0.1-1.2-0.3-1.4-0.9c-0.1-0.3-0.1-0.7,0.1-1c0.2-0.3,0.4-0.5,0.7-0.6
	C49.5,35.3,50.2,35.6,50.5,36.3z M51,39.7v0.2c0,0.3-0.2,0.5-0.4,0.7s-0.4,0.3-0.7,0.4h-0.2c-0.7,0-1.3-0.6-1.3-1.3
	c0-0.3,0.1-0.7,0.4-0.9c0.2-0.2,0.6-0.4,0.9-0.4C50.4,38.5,51,39,51,39.7z M53,33c0.4,0.8,0.1,1.9-0.8,2.3c-0.2,0.1-0.3,0.1-0.5,0.2
	c-0.7,0.1-1.5-0.2-1.8-0.9c-0.4-0.8-0.1-1.9,0.8-2.3C51.5,31.9,52.6,32.2,53,33z M53.2,35.4c0.4-0.5,0.6-1.1,0.6-1.7l1.1,0.5
	c0.4,0.2,0.9,0.3,1.4,0.2c-0.4,0.2-0.8,0.5-1,0.9l-0.6,1.1C54.4,35.9,53.8,35.5,53.2,35.4z M53,40.1c0.9,0.1,1.6,1,1.4,2
	c-0.1,0.8-0.7,1.3-1.4,1.4h-0.5c-0.9-0.1-1.6-1-1.4-2C51.2,40.6,52.1,39.9,53,40.1z M53,39.4c-0.9,0.1-1.8-0.5-2-1.4
	c-0.1-0.9,0.5-1.8,1.4-2c0.9-0.1,1.8,0.5,2,1.4C54.6,38.4,53.9,39.2,53,39.4z M51.3,29.7l1.2,0.2c0.4,0.1,0.9,0,1.4-0.3
	c-0.4,0.3-0.6,0.8-0.7,1.2L53,32c-0.5-0.4-1.1-0.6-1.7-0.5C51.5,30.9,51.5,30.3,51.3,29.7z M35.1,46.2c-0.4-0.3-1-0.4-1.5-0.3v-0.1
	c0.1-0.4,0-0.8-0.2-1.1c0-0.1-0.1-0.2-0.2-0.2c-0.3-0.4-0.8-0.7-1.3-0.7l0.1-0.1c0.2-0.3,0.2-0.7,0.2-1.1c0-0.1,0-0.2-0.1-0.3
	c-0.2-0.5-0.6-0.9-1-1.1l0.1-0.1c0.3-0.3,0.5-0.6,0.5-1v-0.3c0-0.6-0.3-1-0.6-1.4c0,0,0.1,0,0.1-0.1c0.3-0.2,0.6-0.5,0.8-0.8
	c0-0.1,0.1-0.2,0.1-0.3c0.2-0.5,0.1-1.1-0.2-1.5H32c0.4-0.1,0.7-0.2,1-0.5l0.2-0.2c0.3-0.4,0.4-1,0.3-1.5h0.1c0.4,0.1,0.8,0,1.1-0.2
	c0.1,0,0.2-0.1,0.2-0.1c0.4-0.3,0.7-0.8,0.7-1.3l0.1,0.1c0.3,0.2,0.7,0.2,1.1,0.2c0.1,0,0.2,0,0.3-0.1c0.5-0.2,0.9-0.6,1.1-1
	l0.1,0.1c0.3,0.3,0.6,0.5,1,0.5h0.3c0.6,0,1-0.3,1.4-0.6c0,0,0,0.1,0.1,0.1c0.2,0.3,0.5,0.6,0.8,0.8c0.1,0,0.2,0.1,0.3,0.1
	c0.5,0.2,1.1,0.1,1.5-0.2V32c0.1,0.4,0.2,0.7,0.5,1l0.2,0.2c0.4,0.3,1,0.4,1.5,0.3v0.1c-0.1,0.4,0,0.8,0.2,1.1
	c0,0.1,0.1,0.2,0.2,0.2c0.3,0.4,0.8,0.7,1.3,0.7l-0.1,0.1c-0.2,0.3-0.2,0.7-0.2,1.1c0,0.1,0,0.2,0.1,0.3c0.2,0.5,0.6,0.9,1,1.1
	l-0.1,0.1c-0.3,0.3-0.5,0.6-0.5,1v0.3c0,0.6,0.3,1,0.6,1.4c0,0-0.1,0-0.1,0.1c-0.3,0.2-0.6,0.5-0.8,0.8c0,0.1-0.1,0.2-0.1,0.3
	c-0.2,0.5-0.1,1.1,0.2,1.5h-0.1c-0.4,0.1-0.7,0.2-1,0.5l-0.2,0.2c-0.3,0.4-0.4,1-0.3,1.5h-0.1c-0.4-0.1-0.8,0-1.1,0.2
	c-0.1,0-0.2,0.1-0.2,0.2c-0.4,0.3-0.7,0.8-0.7,1.3l-0.1-0.1c-0.3-0.2-0.7-0.2-1.1-0.2c-0.1,0-0.2,0-0.3,0.1c-0.5,0.2-0.9,0.6-1.1,1
	l-0.1-0.1c-0.3-0.3-0.6-0.5-1-0.5h-0.3c-0.6,0-1,0.3-1.4,0.6c0,0,0-0.1-0.1-0.1c-0.2-0.3-0.5-0.6-0.8-0.8c-0.1,0-0.2-0.1-0.3-0.1
	c-0.5-0.2-1.1-0.1-1.5,0.2v-0.1c-0.1-0.4-0.2-0.7-0.5-1C35.3,46.3,35.2,46.3,35.1,46.2z M33,46.9c0.4-0.6,1.2-0.7,1.8-0.3
	c0.3,0.2,0.5,0.5,0.5,0.8c0.1,0.3,0,0.7-0.2,0.9c-0.2,0.3-0.5,0.5-0.8,0.5c-0.3,0.1-0.7,0-0.9-0.2c-0.1,0-0.1-0.1-0.2-0.1
	c-0.2-0.2-0.3-0.4-0.4-0.7C32.7,47.6,32.8,47.2,33,46.9z M30.6,45.3c0.1-0.3,0.2-0.6,0.5-0.8c0.6-0.4,1.4-0.3,1.8,0.3
	c0.2,0.3,0.3,0.6,0.2,0.9c-0.1,0.3-0.2,0.6-0.5,0.8c-0.2,0.1-0.4,0.2-0.5,0.2c-0.5,0.1-0.9-0.1-1.2-0.5c0-0.1-0.1-0.1-0.1-0.2
	C30.6,45.8,30.6,45.6,30.6,45.3z M29.3,43.2V43c0-0.3,0-0.5,0.1-0.8c0.2-0.3,0.4-0.5,0.7-0.6c0.7-0.2,1.4,0.1,1.6,0.8
	c0.1,0.3,0.1,0.7-0.1,1s-0.4,0.5-0.7,0.6h-0.2C30.1,44.1,29.4,43.8,29.3,43.2z M26.7,46.4c-0.4-0.8-0.1-1.9,0.8-2.3
	c0.8-0.4,1.9-0.1,2.3,0.8c0.4,0.8,0.1,1.9-0.8,2.3c-0.2,0.1-0.3,0.1-0.5,0.2C27.8,47.4,27,47.1,26.7,46.4z M25,43.1
	c0.3,0.5,0.9,0.9,1.5,1c-0.4,0.5-0.6,1.1-0.6,1.7l-1.1-0.5c-0.4-0.2-0.9-0.3-1.4-0.2c0.4-0.2,0.8-0.5,1-0.9L25,43.1z M24.7,38.3
	c0.2,0.6,0.6,1.1,1.1,1.4c-0.5,0.3-0.9,0.8-1.1,1.4l-0.8-0.8c-0.3-0.3-0.8-0.5-1.3-0.6h0.1c0.5-0.1,0.9-0.3,1.2-0.6
	C23.9,39.1,24.7,38.3,24.7,38.3z M25,36.4l-0.5-1.1c-0.2-0.4-0.6-0.7-1-1c0.3,0.1,0.6,0.1,0.8,0c0.2,0,0.4-0.1,0.5-0.2l1.1-0.5
	c0,0.6,0.2,1.2,0.6,1.7C25.9,35.5,25.3,35.9,25,36.4z M25.3,37.4c0.1-0.9,1-1.6,2-1.4c0.9,0.1,1.6,1,1.4,2c-0.1,0.8-0.7,1.3-1.4,1.4
	h-0.5C25.8,39.2,25.1,38.4,25.3,37.4z M28.7,41.5c0.1,0.9-0.5,1.8-1.4,2c-0.9,0.1-1.8-0.5-2-1.4c-0.1-0.9,0.5-1.8,1.4-2
	S28.5,40.6,28.7,41.5z M29.8,34.6c-0.3,0.5-0.7,0.8-1.3,0.9c-0.3,0.1-0.7,0-1-0.2c-0.8-0.4-1.2-1.5-0.8-2.3c0.4-0.8,1.5-1.2,2.3-0.7
	C29.9,32.7,30.2,33.8,29.8,34.6z M31.2,39.7c0,0.3-0.1,0.7-0.4,0.9c-0.2,0.2-0.4,0.3-0.7,0.4h-0.2c-0.7,0-1.3-0.6-1.3-1.3v-0.2
	c0-0.3,0.2-0.5,0.4-0.7c0.2-0.2,0.6-0.4,0.9-0.4C30.7,38.5,31.2,39,31.2,39.7z M30.9,35.5c0.7,0.2,1,0.9,0.8,1.6
	c-0.1,0.3-0.3,0.6-0.6,0.7c-0.1,0.1-0.2,0.1-0.4,0.1h-0.6c-0.7-0.2-1-0.9-0.8-1.6c0-0.1,0-0.1,0.1-0.2c0.1-0.2,0.3-0.4,0.6-0.5
	C30.2,35.4,30.5,35.4,30.9,35.5z M32.6,32.9c0.6,0.4,0.7,1.2,0.3,1.8c-0.2,0.3-0.5,0.4-0.8,0.5s-0.7,0-0.9-0.2
	c-0.6-0.4-0.7-1.2-0.3-1.8c0-0.1,0.1-0.1,0.1-0.2c0.2-0.2,0.4-0.3,0.7-0.4C32,32.6,32.3,32.7,32.6,32.9z M34.8,32.8
	c-0.2,0.1-0.3,0.2-0.5,0.2h-0.4c-0.3-0.1-0.6-0.2-0.8-0.5c-0.4-0.6-0.3-1.4,0.3-1.8c0.1,0,0.1-0.1,0.2-0.1c0.1-0.1,0.4-0.1,0.6-0.1
	c0.3,0.1,0.6,0.2,0.8,0.5C35.5,31.6,35.4,32.4,34.8,32.8z M34.7,29.7c-0.2,0.1-0.3,0.1-0.5,0.2c-0.7,0.1-1.5-0.2-1.8-0.9
	c-0.4-0.8-0.1-1.9,0.8-2.3c0.8-0.4,1.9-0.1,2.3,0.7C35.9,28.2,35.6,29.2,34.7,29.7z M36.4,29.2h0.2c0.3,0,0.5,0,0.8,0.1
	c0.3,0.2,0.5,0.4,0.6,0.7c0.2,0.7-0.1,1.4-0.8,1.6H37c-0.3,0-0.5,0-0.8-0.1c-0.3-0.2-0.5-0.4-0.6-0.7C35.4,30.1,35.7,29.4,36.4,29.2
	z M38.1,28.6c-0.9,0.1-1.8-0.5-2-1.4c-0.1-0.9,0.5-1.8,1.4-2c0.9-0.1,1.8,0.5,2,1.4S39,28.4,38.1,28.6z M40.8,29
	c0.2,0.2,0.4,0.6,0.4,0.9c0,0.6-0.5,1.2-1.1,1.2h-0.2c-0.3,0-0.7-0.1-0.9-0.4c-0.2-0.2-0.4-0.6-0.4-0.9c0-0.7,0.6-1.3,1.3-1.3h0.2
	C40.3,28.7,40.6,28.8,40.8,29z M44,29.8c0.2,0.3,0.2,0.6,0.1,1c-0.2,0.5-0.6,0.8-1,0.9h-0.6c-0.3-0.1-0.6-0.3-0.7-0.6
	c-0.2-0.3-0.2-0.6-0.1-1c0.2-0.7,0.9-1,1.6-0.8c0.1,0,0.1,0,0.2,0.1C43.7,29.4,43.9,29.5,44,29.8z M43.6,27.1
	c-0.1,0.7-0.7,1.3-1.4,1.4h-0.5c-0.9-0.1-1.6-1-1.4-2c0.1-0.9,1-1.6,2-1.4C43.1,25.3,43.7,26.2,43.6,27.1z M28.5,31.5
	c-0.6-0.1-1.2,0.1-1.7,0.5l-0.2-1.2c-0.1-0.4-0.3-0.9-0.7-1.2c0.4,0.2,0.9,0.3,1.4,0.3l1.2-0.2C28.2,30.3,28.2,30.9,28.5,31.5z
	 M28.4,49.8l-1.2-0.2c-0.4-0.1-0.9,0-1.4,0.3c0.4-0.3,0.6-0.8,0.7-1.2l0.2-1.2c0.5,0.4,1.1,0.6,1.7,0.5
	C28.2,48.5,28.2,49.2,28.4,49.8z M51.2,48h0.6c0.4-0.1,0.8-0.2,1.1-0.5l0.2,1.2c0.1,0.4,0.3,0.9,0.7,1.2c-0.4-0.2-0.9-0.3-1.4-0.3
	l-1.2,0.2C51.5,49.2,51.5,48.5,51.2,48z M60.1,35c0.2-0.4,0.6-0.6,1.1-0.7h0.1c0.5-0.1,1.1,0.1,1.4,0.4l0.9,0.9
	c0.1,0.1,0.2,0.3,0.3,0.5c0,0.2,0,0.4-0.1,0.5l-0.6,0.9c-0.2,0.4-0.7,0.7-1.2,0.8s-1.1-0.1-1.4-0.4L59.7,37c-0.3-0.3-0.3-0.7-0.2-1
	C59.6,36.1,60.1,35,60.1,35z M59.5,34.7l-0.6,1.1c-0.2,0.3-0.2,0.7-0.2,1s0.2,0.6,0.5,0.9l0.9,0.9l0.1,0.1l-2.5,0.4
	c-0.5,0.1-1.1-0.1-1.4-0.4l-0.9-0.9c-0.3-0.3-0.3-0.7-0.2-1l0.6-1.1c0.2-0.4,0.7-0.7,1.2-0.8l2.5-0.4C59.6,34.6,59.5,34.6,59.5,34.7
	z M56.9,31.1c0.1,0.3,0.4,0.5,0.7,0.7l1.1,0.6c0.1,0,0.1,0.1,0.2,0.1l-2.2,1c-0.2,0.1-0.4,0.2-0.6,0.2c-0.3,0-0.6,0-0.9-0.1
	l-1.1-0.5c-0.4-0.2-0.5-0.5-0.5-0.9l0.2-1.2c0.1-0.4,0.4-0.9,0.9-1.1l2.2-1.1V29l-0.2,1.2C56.7,30.4,56.8,30.8,56.9,31.1z
	 M45.3,24.7l0.5,1.1c-0.6,0-1.2,0.2-1.7,0.6c-0.1-0.6-0.5-1.1-1-1.5l1.1-0.5c0.4-0.2,0.7-0.6,0.9-1C45.1,23.8,45.1,24.3,45.3,24.7z
	 M34.5,23.3c0.2,0.4,0.5,0.8,0.9,1l1.1,0.6c-0.5,0.3-0.9,0.9-1,1.5c-0.5-0.4-1.1-0.6-1.7-0.6l0.5-1.1C34.6,24.3,34.6,23.8,34.5,23.3
	z M22.9,30.1l-0.2-1.2v-0.2l2.2,1.1c0.5,0.3,0.8,0.7,0.9,1.1l0.2,1.2c0.1,0.4-0.1,0.7-0.5,0.9l-1.1,0.5c-0.1,0.1-0.2,0.1-0.4,0.1
	c-0.3,0.1-0.7,0-1.1-0.2l-2.2-1.1c0.1,0,0.1,0,0.2-0.1l1.1-0.5c0.3-0.2,0.6-0.4,0.7-0.7C22.9,30.8,23,30.4,22.9,30.1z M22.8,48.4
	c-0.1-0.3-0.4-0.5-0.7-0.7L21,47.2c-0.1,0-0.1,0-0.2-0.1L23,46c0.5-0.2,1-0.3,1.4-0.1l1.1,0.5c0.4,0.2,0.5,0.5,0.5,0.9l-0.2,1.2
	c-0.1,0.4-0.4,0.9-0.9,1.1l-2.2,1.1v-0.2l0.2-1.2C23,49,23,48.7,22.8,48.4z M34.4,54.7l-0.5-1.1h0.5c0.5-0.1,0.9-0.3,1.2-0.6
	c0.1,0.6,0.5,1.1,1,1.5L35.5,55c-0.4,0.2-0.7,0.6-0.9,1C34.6,55.6,34.6,55.1,34.4,54.7z M45.2,56.1c-0.2-0.4-0.5-0.8-0.9-1l-1.1-0.6
	c0.5-0.3,0.9-0.9,1-1.5c0.5,0.4,1.1,0.6,1.7,0.6l-0.5,1.1C45.2,55.1,45.1,55.6,45.2,56.1z M56.8,49.4l0.2,1.2v0.2l-2.2-1.1
	c-0.5-0.2-0.8-0.7-0.9-1.1l-0.2-1.2c-0.1-0.4,0.1-0.7,0.5-0.9l1.1-0.5c0.4-0.2,0.9-0.2,1.4,0.1l2.2,1.1c-0.1,0-0.1,0-0.2,0.1
	l-1.1,0.5c-0.3,0.2-0.6,0.4-0.7,0.7C56.8,48.7,56.7,49,56.8,49.4z M58.2,24.2l-0.1-0.9c1.3,0.7,2.9,0.7,4.3,0.1
	c-1,1.1-1.5,2.7-1.2,4.1l-0.8-0.4c-0.6-0.3-1.4-0.3-2.1,0.1c0,0-0.1,0-0.1,0.1l-3.7,1.9h-0.1h0.1l3-3C58,25.6,58.3,24.8,58.2,24.2z
	 M52.5,19.3l-0.4-0.8c0.5,0.1,1,0.1,1.6,0c0.9-0.1,1.8-0.6,2.6-1.2c-0.6,1.4-0.6,3,0.1,4.3l-0.9-0.1c-0.7-0.1-1.4,0.2-2,0.7
	l-0.1,0.1l-2.9,2.9l-0.1,0.1v-0.1l2-3.8C52.7,20.7,52.8,19.9,52.5,19.3z M49.9,17.4L49,17.5c-0.7,0.1-1.3,0.6-1.7,1.3
	c0,0,0,0.1-0.1,0.1l-1.9,3.7l0.7-4.2c0.1-0.8-0.1-1.5-0.6-2l-0.6-0.6h0.1c1.4-0.2,2.7-1.1,3.4-2.4C48.3,14.8,48.8,16.4,49.9,17.4z
	 M31.2,13.3c0.8,1.3,2.1,2.3,3.6,2.4l-0.6,0.6c-0.5,0.5-0.7,1.2-0.6,2v0.1l0.6,4.1l-1.9-3.8c-0.4-0.7-1-1.2-1.6-1.3l-0.9-0.1
	C30.9,16.4,31.4,14.8,31.2,13.3z M23.5,17.3c1.2,1,2.7,1.5,4.1,1.2l-0.4,0.8c-0.3,0.6-0.3,1.4,0.1,2.1c0,0,0,0.1,0.1,0.1l1.9,3.7
	l-3-3c-0.5-0.6-1.3-0.8-2-0.7l-0.9,0.1C24.1,20.3,24.1,18.7,23.5,17.3z M22.2,26.1l0.1,0.1l2.9,2.9l-3.8-2c-0.7-0.4-1.5-0.4-2.1-0.1
	l-0.8,0.5c0.3-1.5-0.2-3-1.2-4.1c1.4,0.6,3,0.6,4.3-0.1l-0.1,0.9C21.4,24.8,21.7,25.6,22.2,26.1z M7.2,37.1
	c-0.5-0.7-0.5-1.5-0.3-2.6s0.4-1.9,1.1-2.4L8.1,32c0.9-0.7,2.1-0.9,3.3-0.7c2.3,0.4,3.9,2.4,3.6,4.5c-0.3,1.7-1.7,2.9-3.4,3.2
	c-0.5,0.1-0.9,0.1-1.4,0C9,38.8,8,38.2,7.3,37.3C7.3,37.3,7.2,37.1,7.2,37.1z M21.5,55.3l0.1,0.9c-1.3-0.7-2.9-0.7-4.3-0.1
	c1-1.1,1.5-2.7,1.2-4.1l0.8,0.4c0.4,0.2,0.8,0.3,1.3,0.2c0.3,0,0.5-0.1,0.8-0.3c0,0,0.1,0,0.1-0.1l3.7-1.9l-3,3
	C21.7,53.9,21.4,54.6,21.5,55.3z M27.2,60.2l0.4,0.8c-1.5-0.3-3,0.2-4.1,1.2c0.6-1.4,0.6-3-0.1-4.3l0.9,0.1h0.6
	c0.5-0.1,1-0.3,1.4-0.7l0.1-0.1l2.9-2.9l0.1-0.1v0.1l-2,3.8C27,58.8,26.9,59.6,27.2,60.2z M29.8,62.1l0.9-0.1
	c0.7-0.1,1.3-0.6,1.7-1.3c0,0,0-0.1,0.1-0.1l1.9-3.7v-0.1v0.1l-0.7,4.2c-0.1,0.8,0.1,1.5,0.6,2l0.6,0.6c-1.5,0.2-2.8,1.1-3.6,2.4
	C31.4,64.6,30.9,63.1,29.8,62.1z M48.5,66.1c-0.8-1.3-2.1-2.3-3.6-2.4l0.6-0.6c0.5-0.5,0.7-1.2,0.6-2V61l-0.6-4.1v-0.1v0.1l1.9,3.8
	c0.4,0.7,1,1.2,1.6,1.3l0.9,0.2C48.8,63.1,48.3,64.6,48.5,66.1z M56.2,62.2c-1.2-1-2.7-1.5-4.1-1.2l0.4-0.8c0.3-0.6,0.3-1.4-0.1-2.1
	c0,0,0-0.1-0.1-0.1l-1.9-3.7v-0.1v0.1l3,3c0.5,0.6,1.3,0.8,2,0.7l0.9-0.1C55.6,59.2,55.6,60.8,56.2,62.2z M57.5,53.3l-3-3l-0.1-0.1
	h0.1l3.8,2c0.7,0.4,1.5,0.4,2.1,0.1l0.8-0.4c-0.3,1.5,0.2,3,1.2,4.1c-1.4-0.6-3-0.6-4.3,0.1l0.1-0.9C58.3,54.6,58,53.9,57.5,53.3z
	 M70.8,27.6l0.1-0.2c0.4-1.1,1.2-1.9,2.3-2.3c2.5-0.8,3.6,1.8,3.8,2.6c0.3,1,0.4,1.9,0.1,2.7c-0.3,0.8-0.8,1.4-1.7,1.6
	c-0.2,0.1-0.4,0.1-0.6,0.1c-0.9,0.2-1.9-0.1-2.7-0.6L72,31.4c-1-0.7-2.3-1.1-3.6-0.9C69.6,29.8,70.4,28.8,70.8,27.6L70.8,27.6z
	 M79.6,38.6c-0.3-2.1-1.6-3.3-3.5-3.3c-0.9,0-1.7,0.3-2.4,0.7c0-0.6,0-1.1-0.1-1.6s-0.2-1.1-0.4-1.6c0.8,0.2,1.7,0.2,2.5-0.1
	c1.1-0.4,1.9-1.1,2.2-2.1c0.3-0.9,0.2-2-0.1-3.2c-0.8-2.6-2.7-3.8-4.8-3.1c-0.8,0.3-1.5,0.8-2.1,1.4c-0.1-0.5-0.4-1.1-0.6-1.5
	c-0.2-0.5-0.5-1-0.9-1.4c0.9,0,1.7-0.3,2.4-0.8c0.9-0.7,1.4-1.6,1.4-2.7c0-1-0.4-2-1.1-3c-1.6-2.2-3.7-2.8-5.5-1.4
	c-0.7,0.5-1.2,1.2-1.5,2c-0.3-0.5-0.7-0.9-1.1-1.3s-0.8-0.7-1.2-1c0.8-0.3,1.5-0.8,2-1.5c0.7-0.9,0.9-2,0.5-3c-0.3-0.9-1-1.8-2-2.5
	c-2.2-1.6-4.4-1.5-5.7,0.3c-0.5,0.7-0.8,1.5-0.8,2.4c-0.4-0.4-0.9-0.6-1.4-0.9c-0.5-0.2-1-0.5-1.5-0.6c0.7-0.5,1.2-1.3,1.4-2.1
	c0.4-1.1,0.2-2.2-0.4-3c-0.6-0.8-1.5-1.4-2.7-1.8c-2.6-0.8-4.6,0-5.3,2.1c-0.3,0.8-0.3,1.7-0.1,2.5c-0.5-0.2-1.1-0.3-1.6-0.4
	S44.1,5.9,43.6,6c0.4-0.7,0.7-1.5,0.7-2.4c0-1.2-0.5-2.1-1.4-2.8C42.1,0.2,41.1,0,39.8,0c-0.4,0-0.7,0-1.1,0.1h-0.1
	c-2.1,0.3-3.3,1.6-3.3,3.5c0,0.9,0.3,1.7,0.7,2.4c-0.6,0-1.1,0-1.6,0.1c-0.4,0.1-1,0.2-1.5,0.4c0.2-0.8,0.2-1.7-0.1-2.5
	c-0.4-1.1-1.1-1.9-2.2-2.2c-0.9-0.3-2-0.2-3.2,0.1c-2.6,0.8-3.8,2.7-3.1,4.8c0.3,0.8,0.8,1.5,1.4,2.1c-0.5,0.1-1.1,0.4-1.5,0.6
	c-0.5,0.2-1,0.5-1.4,0.9c0-0.8-0.3-1.7-0.8-2.4c-0.6-1-1.5-1.4-2.6-1.4c-1,0-2,0.4-3,1.1c-2.2,1.6-2.8,3.7-1.4,5.5
	c0.5,0.7,1.2,1.2,2,1.5c-0.5,0.3-0.9,0.7-1.3,1c-0.4,0.4-0.7,0.8-1,1.2c-0.3-0.8-0.8-1.5-1.5-2c-0.9-0.7-2-0.9-3-0.5
	c-0.9,0.3-1.8,1-2.5,2C6.1,18.5,6.2,20.7,8,22c0.7,0.5,1.5,0.8,2.4,0.8c-0.4,0.4-0.6,0.9-0.9,1.4c-0.2,0.5-0.5,1-0.6,1.5
	c-0.5-0.7-1.3-1.2-2.1-1.4c-1.1-0.4-2.2-0.2-3.1,0.4c-0.8,0.6-1.4,1.5-1.8,2.6c-0.8,2.6,0,4.6,2.1,5.3c0.8,0.3,1.7,0.3,2.5,0.1
	c-0.2,0.5-0.3,1.1-0.4,1.6C6.1,34.9,6,35.5,6,36c-0.7-0.5-1.6-0.7-2.4-0.7c-1.2,0-2.1,0.5-2.8,1.4c-0.5,0.7-0.8,1.8-0.8,3
	c0,2.7,1.4,4.4,3.6,4.4c0.9,0,1.7-0.3,2.4-0.7C6,44,6,44.5,6.1,45s0.2,1.1,0.4,1.6c-0.8-0.2-1.7-0.2-2.5,0.1
	c-1.1,0.4-1.9,1.1-2.2,2.2c-0.3,0.9-0.2,2,0.1,3.2c0.8,2.6,2.7,3.8,4.8,3.1c0.8-0.3,1.5-0.8,2.1-1.4c0.1,0.5,0.4,1.1,0.6,1.5
	c0.2,0.5,0.5,1,0.9,1.4c-0.9,0-1.7,0.3-2.4,0.8c-0.9,0.7-1.4,1.6-1.4,2.7c0,1,0.4,2,1.1,3c1.6,2.2,3.7,2.8,5.5,1.4
	c0.7-0.5,1.2-1.2,1.5-2c0.3,0.5,0.7,0.9,1,1.3c0.4,0.4,0.8,0.7,1.3,1c-0.8,0.3-1.5,0.8-2,1.5c-0.7,0.9-0.9,2-0.5,3
	c0.3,0.9,1,1.8,2,2.5c2.2,1.6,4.4,1.5,5.7-0.3c0.5-0.7,0.8-1.5,0.8-2.4c0.4,0.4,0.9,0.6,1.4,0.9c0.5,0.2,1,0.5,1.5,0.6
	c-0.7,0.5-1.2,1.3-1.4,2.1c-0.4,1.1-0.2,2.2,0.4,3s1.5,1.4,2.7,1.8c2.6,0.8,4.6,0,5.3-2.1c0.3-0.8,0.3-1.7,0.1-2.5
	c0.5,0.2,1.1,0.3,1.6,0.4s1.1,0.1,1.6,0.1c-0.5,0.7-0.7,1.5-0.7,2.4c0,1.2,0.5,2.1,1.4,2.8c0.8,0.6,1.8,0.9,3.1,0.8
	c2.7,0,4.4-1.4,4.4-3.6c0-0.9-0.3-1.7-0.7-2.4c0.6,0,1.1,0,1.6-0.1s1.1-0.2,1.6-0.4c-0.2,0.8-0.2,1.7,0.1,2.5
	c0.4,1.1,1.1,1.9,2.2,2.2c0.9,0.3,2,0.2,3.2-0.1c2.6-0.8,3.8-2.7,3.1-4.8c-0.3-0.8-0.8-1.5-1.4-2.1c0.5-0.1,1.1-0.4,1.5-0.6
	c0.5-0.2,1-0.5,1.4-0.9c0,0.8,0.3,1.7,0.8,2.4c0.7,0.9,1.6,1.4,2.7,1.4c1,0,2-0.4,3-1.1c2.2-1.6,2.8-3.7,1.4-5.5
	c-0.5-0.7-1.2-1.2-2-1.5c0.5-0.3,0.9-0.7,1.3-1c0.4-0.4,0.7-0.8,1-1.2c0.3,0.8,0.8,1.5,1.5,2c0.9,0.7,2,0.9,3,0.5
	c0.9-0.3,1.8-1,2.5-2c1.6-2.2,1.5-4.4-0.3-5.7c-0.7-0.5-1.5-0.8-2.4-0.8c0.4-0.4,0.6-0.9,0.9-1.4c0.2-0.5,0.5-1,0.6-1.5
	c0.5,0.7,1.3,1.2,2.1,1.4c1.1,0.4,2.2,0.2,3.1-0.4c0.8-0.6,1.4-1.5,1.8-2.6c0.8-2.6,0-4.6-2.1-5.3c-0.8-0.3-1.7-0.3-2.5-0.1
	c0.2-0.5,0.3-1.1,0.4-1.6s0.2-1.1,0.1-1.6c0.7,0.5,1.6,0.7,2.4,0.7c1.2,0,2.1-0.5,2.8-1.4c0.6-0.8,0.9-1.8,0.9-3.1
	C79.7,39.4,79.7,39,79.6,38.6L79.6,38.6z"/>
<path fill="#3C2210" d="M85.3,6.1h10.3v2.2h-7.7v4h7l0.3,2.1h-7.3v4.3h7.9v2.1H85.3V6.1z M103.1,15.1L99,20.8h-2.8l5.4-7.6l-5-6.9
	L99.5,6l3.8,5.4l3.6-5.3h2.8l-4.9,7.1l5.5,7.5l-2.8,0.3L103.1,15.1z M123.1,11c0,2.9-2,4.9-5.7,4.9h-3.7v5h-2.6V6.1h6.3
	C121.1,6.1,123.1,8.1,123.1,11 M120.4,11c0-1.8-1.3-2.7-3.1-2.7h-3.6v5.5h3.6C119.1,13.7,120.4,12.8,120.4,11 M123.8,13.5
	c0-4.2,2.8-7.6,7.8-7.6s7.8,3.4,7.8,7.6s-2.8,7.6-7.8,7.6S123.8,17.7,123.8,13.5 M126.4,13.5c0,3.2,1.9,5.4,5.2,5.4s5.2-2.2,5.2-5.4
	s-1.9-5.4-5.2-5.4S126.4,10.3,126.4,13.5 M85.3,40.7h5c4.7,0,7.5,3,7.5,7.4c0,4.3-2.8,7.4-7.5,7.4h-5V40.7z M96.9,48
	c0-4-2.6-6.5-6.7-6.5h-4.1v13.1h4.1C94.3,54.6,96.9,52.1,96.9,48z M100.9,40.6V50c0,2.7,1.8,4.8,5.2,4.8c3.4,0,5.2-2.1,5.2-4.8v-9.2
	l0.9-0.2V50c0,3-1.9,5.6-6,5.6c-4.3,0-6-2.9-6-5.6v-9.2C100.2,40.8,100.9,40.6,100.9,40.6z M125.8,44.5c0,1.7-0.9,2.9-2.3,3.4
	c1.8,0.3,2.8,1.6,2.8,3.6c0,2.7-1.7,4-4.9,4h-6.2V40.7h5.5C123.9,40.7,125.8,41.8,125.8,44.5z M124.9,44.5c0-2.7-2.1-3-4.4-3h-4.4
	v5.9h4.4C122.8,47.4,124.9,47.2,124.9,44.5z M116.1,54.6h5.1c2.4,0,4.2-0.4,4.2-3.1s-1.9-3.2-4.2-3.2h-5.1
	C116.1,48.3,116.1,54.6,116.1,54.6z M138.3,51.5h-8.6l-1.7,3.9h-0.9l6.4-14.7l0.9-0.2l6.5,14.8l-0.9,0.2L138.3,51.5z M137.9,50.7
	l-4-9l-3.9,9H137.9z M142.8,55.4V40.8l0.9-0.2v14.8L142.8,55.4z"/>
<path fill="#3C2210" d="M86.1,57.8v9.4c0,2.7,1.8,4.8,5.2,4.8c3.4,0,5.2-2.1,5.2-4.8V58l0.9-0.2v9.4c0,3-1.9,5.6-6,5.6
	c-4.3,0-6-2.9-6-5.6V58C85.4,58,86.1,57.8,86.1,57.8z M109.8,68.8h-8.6l-1.7,3.9h-0.9L105,58l0.9-0.2l6.5,14.8l-0.9,0.2
	C111.5,72.8,109.8,68.8,109.8,68.8z M109.5,68l-4-9l-3.9,9H109.5z M114.4,58h9.9v0.8h-9.1v5.9h8.4l0.3,0.8h-8.7v6.3h9.3v0.9h-10.1
	L114.4,58z"/>
<path fill="#3C2210" d="M90.5,23.2c2.9,0,5.4,1.3,5.4,4.2c0,4.7-7.8,5.5-7.8,8.6h7.7l0.3,2.1H85.3v-1.3c0-5.6,8-5.7,8-9.2
	c0-1.7-1.4-2.3-3-2.3c-1.5,0-2.8,0.6-4.2,1.4l-0.4-2.1C87.2,23.8,88.8,23.2,90.5,23.2 M97,30.8c0-4.2,2.1-7.6,6.5-7.6
	s6.5,3.4,6.5,7.6s-2.2,7.6-6.5,7.6C99.1,38.3,97,35,97,30.8 M99.6,30.8c0,3.3,1.2,5.5,3.9,5.5s3.9-2.2,3.9-5.5s-1.2-5.5-3.9-5.5
	S99.6,27.5,99.6,30.8"/>
<path fill="#3C2210" d="M116.1,23.2c2.9,0,5.4,1.3,5.4,4.2c0,4.7-7.8,5.5-7.8,8.6h7.7l0.3,2.1h-10.9v-1.3c0-5.6,8-5.7,8-9.2
	c0-1.7-1.4-2.3-3-2.3c-1.5,0-2.8,0.6-4.2,1.4l-0.4-2.1C112.8,23.8,114.3,23.2,116.1,23.2 M122.6,30.8c0-4.2,2.1-7.6,6.5-7.6
	s6.5,3.4,6.5,7.6s-2.2,7.6-6.5,7.6C124.7,38.3,122.6,35,122.6,30.8 M125.2,30.8c0,3.3,1.2,5.5,3.9,5.5s3.9-2.2,3.9-5.5
	s-1.2-5.5-3.9-5.5C126.4,25.2,125.2,27.5,125.2,30.8"/>
</svg>
