<svg id="Layer_1" data-name="Layer 1" xmlns="http://www.w3.org/2000/svg" xmlns:xlink="http://www.w3.org/1999/xlink" viewBox="0 0 301.43 242.05"><defs><style>.cls-1{fill:#1d1d1b;}.cls-2{fill:url(#linear-gradient);}.cls-3{fill:url(#New_Gradient_Swatch_3);}.cls-4{fill:url(#linear-gradient-2);}.cls-5{fill:url(#linear-gradient-3);}.cls-6{fill:url(#linear-gradient-4);}</style><linearGradient id="linear-gradient" x1="-6727.47" y1="735.87" x2="-6971.05" y2="531.48" gradientTransform="translate(2173.35 -143.89) scale(0.3)" gradientUnits="userSpaceOnUse"><stop offset="0" stop-color="#fef6f5"/><stop offset="0.07" stop-color="#fdeff0"/><stop offset="0.17" stop-color="#fbdbe1"/><stop offset="0.29" stop-color="#f8bac8"/><stop offset="0.42" stop-color="#f38da6"/><stop offset="0.57" stop-color="#ed537a"/><stop offset="0.73" stop-color="#e50d46"/><stop offset="0.76" stop-color="#e4003c"/></linearGradient><linearGradient id="New_Gradient_Swatch_3" x1="-6846.23" y1="593.57" x2="-6465.19" y2="985.81" gradientTransform="translate(2173.35 -143.89) scale(0.3)" gradientUnits="userSpaceOnUse"><stop offset="0" stop-color="#f4f8ed"/><stop offset="0.24" stop-color="#8ec15c"/><stop offset="0.34" stop-color="#87bd5c"/><stop offset="0.48" stop-color="#74b35d"/><stop offset="0.65" stop-color="#54a25e"/><stop offset="0.85" stop-color="#298b60"/><stop offset="1" stop-color="#017562"/></linearGradient><linearGradient id="linear-gradient-2" x1="-6683.66" y1="367.77" x2="-6683.66" y2="1129.93" gradientTransform="translate(2173.35 -143.89) scale(0.3)" gradientUnits="userSpaceOnUse"><stop offset="0" stop-color="#fff"/><stop offset="1" stop-color="#97c347"/></linearGradient><linearGradient id="linear-gradient-3" x1="-6672.22" y1="718.65" x2="-6714.45" y2="479.18" gradientTransform="translate(2173.35 -143.89) scale(0.3)" gradientUnits="userSpaceOnUse"><stop offset="0" stop-color="#e9effa"/><stop offset="0.15" stop-color="#e5edf9"/><stop offset="0.28" stop-color="#dbe7f6"/><stop offset="0.41" stop-color="#c8ddf1"/><stop offset="0.53" stop-color="#afcfea"/><stop offset="0.65" stop-color="#8ebde1"/><stop offset="0.77" stop-color="#65a7d6"/><stop offset="0.89" stop-color="#368ec9"/><stop offset="1" stop-color="#0070ba"/></linearGradient><linearGradient id="linear-gradient-4" x1="-6667" y1="612.67" x2="-6667" y2="997.41" gradientTransform="translate(2173.35 -143.89) scale(0.3)" gradientUnits="userSpaceOnUse"><stop offset="0" stop-color="#fff"/><stop offset="1" stop-color="#c7dd9b"/></linearGradient></defs><path class="cls-1" d="M5.07,216.81a1.32,1.32,0,1,0,0,2.64,1.32,1.32,0,1,0,0-2.64m3.57,0a1.32,1.32,0,1,0,0,2.64,1.32,1.32,0,1,0,0-2.64m25.83-11.69a2.29,2.29,0,0,1-2.6,2.61H12.28c-1.68,0-2.36-.53-3-2.14l-1.14,2.3a3.49,3.49,0,0,0,3.23,2,2.59,2.59,0,0,1-1.74,2.38,8.06,8.06,0,0,1-2.71.31c-2.9,0-4.48-1.7-4.48-4.65a14.39,14.39,0,0,1,1.58-6l-2.9,1.7a12.18,12.18,0,0,0-1,4.75,6.38,6.38,0,0,0,1.58,4.53,6.93,6.93,0,0,0,5.26,1.89,8,8,0,0,0,4.68-1.19,3.93,3.93,0,0,0,1.8-3.72H32a5,5,0,0,0,3.58-1.29A4.29,4.29,0,0,0,37,205.3v-7l-2.49.71Zm-.45,7a1.35,1.35,0,0,0-1.36,1.31,1.36,1.36,0,0,0,2.72,0A1.36,1.36,0,0,0,34,212.12M48.2,199.5a5.66,5.66,0,0,0-3.75-1.19,5.51,5.51,0,0,0-3.54,1.51v2.77a3.94,3.94,0,0,1,3.54-2.22c1.82,0,2.73.84,2.73,2.5v4.86H40.73l-1.52,2.12H49.66v-7.17a3.91,3.91,0,0,0-1.46-3.18m13.32-1.35a4.9,4.9,0,0,0-4.2,1.83,6.52,6.52,0,0,0-1.13,4,6.42,6.42,0,0,0,1.13,4,4.81,4.81,0,0,0,4.2,1.89A4.9,4.9,0,0,0,65.76,208a6.61,6.61,0,0,0,1.09-4,6.71,6.71,0,0,0-1.09-4,5,5,0,0,0-4.24-1.83m0,9.64c-1.89,0-2.85-1.28-2.85-3.81s1-3.78,2.85-3.78,2.91,1.26,2.91,3.78-1,3.81-2.91,3.81m29.77,4.33A1.31,1.31,0,0,0,90,213.43a1.34,1.34,0,0,0,1.34,1.33,1.39,1.39,0,0,0,1.38-1.33,1.36,1.36,0,0,0-1.38-1.31m3.52,0a1.33,1.33,0,0,0-1.33,1.31,1.36,1.36,0,0,0,1.33,1.33,1.41,1.41,0,0,0,1.4-1.33,1.38,1.38,0,0,0-1.4-1.31m11.57-13.28a4.77,4.77,0,0,0-4,1.71,6.38,6.38,0,0,0-1.07,3.81v.81a2.27,2.27,0,0,1-2.59,2.56H96.87a2.27,2.27,0,0,1-2.6-2.53v-6.92L91.8,199v6.13a2.31,2.31,0,0,1-2.63,2.61H88.06l-15.16,0a1.11,1.11,0,0,1-1.27-1.24V193.32l-2.51.76v12.46a3.14,3.14,0,0,0,3.47,3.31H89.31a5.09,5.09,0,0,0,3.75-1.35,5,5,0,0,0,3.65,1.35h2.13a5.16,5.16,0,0,0,3.87-1.35,5.1,5.1,0,0,0,3.67,1.35,4.75,4.75,0,0,0,4-1.75,6.14,6.14,0,0,0,1.08-3.74,6.39,6.39,0,0,0-1.08-3.81,4.72,4.72,0,0,0-4-1.71m0,8.92c-1.74,0-2.62-1.13-2.62-3.4s.88-3.43,2.62-3.43,2.56,1.14,2.56,3.43-.87,3.4-2.56,3.4m12.46-9a4.72,4.72,0,0,0-4.06,1.82,6.65,6.65,0,0,0-1.07,3.92,6.47,6.47,0,0,0,1.07,3.89,4.63,4.63,0,0,0,4.06,1.86,5.28,5.28,0,0,0,2.5-.61,3.06,3.06,0,0,1-3.16,3,8.86,8.86,0,0,1-4.19-.89l1.11,2.35a6.17,6.17,0,0,0,3.08.67,5.2,5.2,0,0,0,4.25-1.75,6.18,6.18,0,0,0,1.42-4.17c0-.27,0-.8.07-1.62s0-1.37,0-1.87a9.73,9.73,0,0,0-.87-4.54,4.51,4.51,0,0,0-4.25-2.1m0,9.36c-1.76,0-2.66-1.2-2.66-3.62s.9-3.64,2.66-3.64,2.64,1.21,2.64,3.64-.89,3.62-2.64,3.62m17.43-1.49a2.27,2.27,0,0,1,2.18-2.51,2.53,2.53,0,0,1,2,1.05l1.68-1.62a4.75,4.75,0,0,0-3.43-1.61,4.39,4.39,0,0,0-3.54,1.54,5.2,5.2,0,0,0-1.24,3.53v.71h-1.81l-1.9,2.18h12.33v-2.18h-6.28Zm31.82-1.46a2.29,2.29,0,0,1-2.6,2.61h-1.26l-15.14,0c-.88,0-1.28-.42-1.28-1.24V193.32l-2.51.76v12.46a3.14,3.14,0,0,0,3.46,3.31h16.87a5,5,0,0,0,3.61-1.29,4.39,4.39,0,0,0,1.34-3.26v-7l-2.49.71Zm-.46,7a1.35,1.35,0,0,0-1.34,1.31,1.35,1.35,0,0,0,2.7,0,1.35,1.35,0,0,0-1.36-1.31m64.1-11.39a6.66,6.66,0,0,0-4.57-1.62,9,9,0,0,0-1.16.07l5.68-5.82h-3.26l-8.19,8.3,1.72,1.56a5.85,5.85,0,0,1,4.59-2,5,5,0,0,1,3.53,1.22,4.15,4.15,0,0,1,1.27,2.5,18,18,0,0,1,.1,2.78H219.72l-11.19,0v-1.11a25.33,25.33,0,0,0-.28-4.4,4.86,4.86,0,0,0-1.56-2.8,6.91,6.91,0,0,0-4.74-1.61,6,6,0,0,0-4.78,2.21,8,8,0,0,0-1.79,5.34,5.91,5.91,0,0,0,.49,2.37H180.82v-9.41l-2.52.71v10.16a3.18,3.18,0,0,1-3.4,3.48,8.35,8.35,0,0,1-4-1l1.17,2.4a5.43,5.43,0,0,0,2.84.7c3.38,0,5.54-1.95,5.88-4.91H234c0-2.92,0-4.55-.08-4.9a6.14,6.14,0,0,0-2.18-4.22m-32.17,7c-1.29,0-1.94-1.09-1.94-2.49a4,4,0,0,1,.51-2,1.67,1.67,0,0,1,1.43-.91,1.63,1.63,0,0,1,1.42.91,3.61,3.61,0,0,1,.55,2c0,1.4-.68,2.49-2,2.49m6.52,0H203c.55-.38.82-1.21.82-2.47a5.37,5.37,0,0,0-1-3.25,3.59,3.59,0,0,0-3.15-1.63,5.15,5.15,0,0,1,2.29-.42c2,0,3.18.7,3.72,2.21a15.56,15.56,0,0,1,.41,4.45ZM244.7,196a1.37,1.37,0,0,0,1.38-1.34,1.37,1.37,0,0,0-2.74,0A1.37,1.37,0,0,0,244.7,196m3.55,0a1.39,1.39,0,0,0,1.37-1.34,1.36,1.36,0,0,0-1.37-1.3,1.33,1.33,0,0,0-1.34,1.3,1.35,1.35,0,0,0,1.34,1.34m18.25-.95h-3.92v-.74c0-1.14.5-1.73,1.46-1.73a1.69,1.69,0,0,1,1.4.74l1.15-1.13a3.22,3.22,0,0,0-5.63,2.35v.51h-.9l-1.26,1.48h7.7ZM277,212.12a1.32,1.32,0,0,0-1.35,1.31,1.35,1.35,0,0,0,1.35,1.33,1.37,1.37,0,0,0,1.37-1.33,1.35,1.35,0,0,0-1.37-1.31m3.52,0a1.31,1.31,0,0,0-1.32,1.31,1.33,1.33,0,0,0,1.32,1.33,1.38,1.38,0,0,0,1.37-1.33,1.36,1.36,0,0,0-1.37-1.31M300.4,200c-1-1.77-2.89-2.65-5.59-2.65h-3.17l-2.85,2.15h5.7c1.87,0,3.12.58,3.7,1.71a10,10,0,0,1,.68,4.37v2.08h-2.34a4.36,4.36,0,0,0,.68-2.74,4.41,4.41,0,0,0-.72-2.65A3.1,3.1,0,0,0,293.7,201a3.26,3.26,0,0,0-2.83,1.33,4.48,4.48,0,0,0-.72,2.65c0,1.61.26,2.51.81,2.74l-7.63,0h-.79c-1.75,0-2.6-.84-2.6-2.53v-6.92l-2.47.71v6.13a2.31,2.31,0,0,1-2.63,2.61h-6.77a2.26,2.26,0,0,1-2.59-2.53v-6.92L263,199v6.13a2.31,2.31,0,0,1-2.64,2.61h-6.9a2.29,2.29,0,0,1-2.58-2.61v-6.84h-5.34c-3.34,0-5,1.89-5,5.7s1.68,5.87,5,5.87c2,0,3.27-.6,3.86-1.81.57,1.21,1.88,1.81,3.93,1.81h7.2a5.11,5.11,0,0,0,3.74-1.35,5,5,0,0,0,3.66,1.35H275a5.16,5.16,0,0,0,3.76-1.35,4.94,4.94,0,0,0,3.65,1.35h19v-4.24a11.72,11.72,0,0,0-1-5.58m-52,3.95a5.41,5.41,0,0,1-.52,2.73,2.28,2.28,0,0,1-2.15,1,2.31,2.31,0,0,1-2.17-1A5.52,5.52,0,0,1,243,204a5.41,5.41,0,0,1,.52-2.74,2.39,2.39,0,0,1,2.17-1h2.67Zm45.33,3.75c-1,0-1.56-.92-1.56-2.78,0-1.5.53-2.25,1.56-2.25s1.55.75,1.55,2.25c0,1.86-.52,2.78-1.55,2.78"/><path class="cls-1" d="M274.49,229.37h0a2.8,2.8,0,0,0-1.22,2.3v6.18h2.21V231.7c0-.9,1.12-1.53,2.75-1.53h.47v-1.75h-.47a6.54,6.54,0,0,0-3.72,1"/><path class="cls-1" d="M281.5,227a1.19,1.19,0,1,0-1.19-1.2,1.11,1.11,0,0,0,1.19,1.2m-1.12,10.81h2.18v-9.43h-2.18Z"/><path class="cls-1" d="M299.21,228.42v5.22c0,.9-1.14,1.53-2.75,1.53-1.46,0-3-.4-3-1.52v-5.23h-2.23v5.27c0,1.54,1.38,3.21,5.24,3.21a7.21,7.21,0,0,0,2.75-.52v2.4c0,.9-1.14,1.53-2.75,1.53H294v1.74h2.47a6.44,6.44,0,0,0,3.73-.94,2.81,2.81,0,0,0,1.24-2.32V228.42Z"/><path class="cls-1" d="M286.72,235v-4.79h2.85v-1.74h-2.85v-2.68h-2.2v8.91a2.72,2.72,0,0,0,1.24,2.64,7.81,7.81,0,0,0,3.49.57h.83v-1.74h-.48c-2.72,0-2.88-.45-2.88-1.17"/><path class="cls-1" d="M270.34,229.38l0,0a6.69,6.69,0,0,0-3.74-.94,7,7,0,0,0-3.94.94,2.85,2.85,0,0,0-1.25,2.32v3a2.73,2.73,0,0,0,1.25,2.64,7.81,7.81,0,0,0,3.49.57h.7a7.54,7.54,0,0,0,3.51-.6,2.67,2.67,0,0,0,1.22-2.61v-3a2.8,2.8,0,0,0-1.22-2.3m-1,5.57c0,.72-.13,1.17-2.86,1.17s-2.87-.45-2.87-1.17V231.7c0-.9,1.12-1.54,2.76-1.54,1.84,0,3,.64,3,1.54Z"/><path class="cls-1" d="M228,226.44h0a6.57,6.57,0,0,0-3.75-1c-3.83,0-5.23,1.67-5.23,3.23v9.15h2.25v-3.21H227v3.21h2.2v-9.11a2.8,2.8,0,0,0-1.23-2.31m-1,6.47h-5.76v-4.2c0-1.39,2.29-1.49,3-1.49,1.64,0,2.78.64,2.78,1.55Z"/><path class="cls-1" d="M254.46,229.38a7.1,7.1,0,0,0-2.75.52v-4.29H249.5v12.25h2.21v-5.21c0-.9,1.14-1.52,2.75-1.52,1.46,0,3,.39,3,1.5v5.23h2.23v-5.27c0-1.54-1.37-3.21-5.25-3.21"/><path class="cls-1" d="M238.85,234.62c0,1.39-2.3,1.5-3,1.5-1.62,0-2.79-.63-2.79-1.54v-6.16h-2.18v6.19a2.8,2.8,0,0,0,1.23,2.29h0a6.51,6.51,0,0,0,3.74,1c3.87,0,5.24-1.67,5.24-3.24v-6.2h-2.24Z"/><path class="cls-1" d="M245,235v-4.79h2.84v-1.74H245v-2.68h-2.22v8.91a2.73,2.73,0,0,0,1.26,2.64,7.78,7.78,0,0,0,3.49.57h.81v-1.74h-.48c-2.71,0-2.86-.45-2.86-1.17"/><path class="cls-1" d="M19.71,234.62c0,1.39-2.31,1.5-3,1.5-1.63,0-2.76-.63-2.76-1.54v-6.16H11.72v6.18A2.88,2.88,0,0,0,13,236.9a6.45,6.45,0,0,0,3.74,1c3.87,0,5.25-1.67,5.25-3.24v-6.2H19.71Z"/><path class="cls-1" d="M31.93,229.36h0a4.81,4.81,0,0,0-3.15-.94H25.72v-3.26H23.55v8.89c.11,2.54,1.87,3.81,5.23,3.81s4.85-1.38,4.85-4.64a4.4,4.4,0,0,0-1.7-3.86M28.6,236a2.56,2.56,0,0,1-2.87-2.81v-3.08H28.6c2.47,0,2.87,1.93,2.87,3.08,0,2.15-.68,2.81-2.87,2.81"/><path class="cls-1" d="M8.89,226.13h0a6.28,6.28,0,0,0-3.73-1H0v12.7H5.37a7.51,7.51,0,0,0,3.52-.6,2.67,2.67,0,0,0,1.22-2.61v-6.23a2.81,2.81,0,0,0-1.22-2.29M7.9,235c0,.72-.14,1.17-2.86,1.17H2.17v-9.21h3c1.62,0,2.76.63,2.76,1.53Z"/><path class="cls-1" d="M48,226.71a1.18,1.18,0,0,0,0-2.36,1.18,1.18,0,1,0,0,2.36m-1.11,10.83h2.18v-9.43H46.88Z"/><path class="cls-1" d="M40.21,237.86a6.51,6.51,0,0,0,3.74-1,2.83,2.83,0,0,0,1.24-2.3v-3A2.71,2.71,0,0,0,44,229a7.62,7.62,0,0,0-3.51-.6H36.7v1.76h3.41c2.72,0,2.88.43,2.88,1.19v.06H39.24a5.18,5.18,0,0,0-3.41.81,3,3,0,0,0-.85,2.42c0,1.55,1.36,3.21,5.23,3.21m-1.3-4.77H43v1.49c0,.91-1.15,1.54-2.78,1.54-1.44,0-3-.41-3-1.51,0-.62.22-1.52,1.71-1.52"/><path class="cls-1" d="M56.59,226.13a2.79,2.79,0,0,0-1.25,2.29v6.23a2.73,2.73,0,0,0,1.25,2.64,7.9,7.9,0,0,0,3.49.56h3.75v-1.73H60.41c-2.71,0-2.86-.45-2.86-1.17v-2.57h3.72v-1.74H57.55v-2.2c0-.9,1.12-1.53,2.76-1.53h3.52v-1.75H60.31a6.33,6.33,0,0,0-3.72,1"/><path class="cls-1" d="M82.34,229.37h0a2.8,2.8,0,0,0-1.25,2.3v3a2.75,2.75,0,0,0,1.25,2.64,7.89,7.89,0,0,0,3.5.57H89.6v-1.74H86.18c-2.74,0-2.87-.45-2.87-1.17V231.7c0-.9,1.13-1.54,2.76-1.54H89.6v-1.74H86.07a6.62,6.62,0,0,0-3.73,1"/><path class="cls-1" d="M99.77,229.38a2.77,2.77,0,0,0-1.24,2.3v6.18h2.2V231.7c0-.9,1.13-1.53,2.77-1.53H104v-1.75h-.48a6.48,6.48,0,0,0-3.73,1"/><rect class="cls-1" x="65.52" y="225.16" width="2.18" height="12.69"/><path class="cls-1" d="M105.66,237.86h2.18v-9.44h-2.18ZM106.78,227a1.08,1.08,0,0,0,1.13-1.2,1.06,1.06,0,0,0-1.13-1.17,1.09,1.09,0,0,0-1.19,1.17,1.11,1.11,0,0,0,1.19,1.2"/><path class="cls-1" d="M126.06,235v-4.79h2.84v-1.74h-2.84v-2.68h-2.2v8.91a2.74,2.74,0,0,0,1.24,2.64,7.87,7.87,0,0,0,3.49.57h.83v-1.74h-.49c-2.73,0-2.87-.45-2.87-1.17"/><path class="cls-1" d="M93.49,235v-4.79h2.84v-1.74H93.49v-2.68H91.28v8.91a2.71,2.71,0,0,0,1.25,2.64,7.85,7.85,0,0,0,3.48.57h.83v-1.74h-.47c-2.75,0-2.88-.45-2.88-1.17"/><path class="cls-1" d="M138.59,233.64c0,.9-1.15,1.53-2.78,1.53-1.45,0-3-.4-3-1.52v-5.23h-2.23v5.27c0,1.54,1.39,3.21,5.24,3.21a7.41,7.41,0,0,0,2.78-.52v2.4c0,.9-1.15,1.53-2.78,1.53h-2.47v1.74h2.47a6.35,6.35,0,0,0,3.72-.94,2.81,2.81,0,0,0,1.27-2.32V228.42h-2.21Z"/><path class="cls-1" d="M110.79,229.37h0a2.84,2.84,0,0,0-1.25,2.3v3a2.76,2.76,0,0,0,1.25,2.64,7.87,7.87,0,0,0,3.49.57H118v-1.74h-3.42c-2.75,0-2.89-.45-2.89-1.17V231.7c0-.9,1.15-1.54,2.78-1.54H118v-1.74H114.5a6.46,6.46,0,0,0-3.71,1"/><path class="cls-1" d="M120.81,227a1.19,1.19,0,1,0-1.17-1.2,1.09,1.09,0,0,0,1.17,1.2m-1.08,10.81h2.16v-9.43h-2.16Z"/><path class="cls-1" d="M74.37,228.42a6.53,6.53,0,0,0-3.73,1,2.79,2.79,0,0,0-1.26,2.31v3a2.73,2.73,0,0,0,1.26,2.64,7.81,7.81,0,0,0,3.49.56h3.78v-1.73H74.47c-2.73,0-2.86-.45-2.86-1.17v-.09h3.73a5.29,5.29,0,0,0,3.4-.79,3.09,3.09,0,0,0,.86-2.42c0-1.56-1.37-3.23-5.23-3.23m1.3,4.79H71.61V231.7c0-.9,1.12-1.54,2.76-1.54,1.44,0,3,.41,3,1.52,0,.62-.21,1.53-1.7,1.53"/><path class="cls-1" d="M208.57,229.38h0a2.81,2.81,0,0,0-1.23,2.3v6.18h2.19V231.7c0-.9,1.17-1.53,2.8-1.53h.47v-1.75h-.47a6.47,6.47,0,0,0-3.74,1"/><path class="cls-1" d="M190.92,235v-4.79h2.84v-1.74h-2.84v-2.68h-2.2v8.91a2.72,2.72,0,0,0,1.24,2.64,7.89,7.89,0,0,0,3.5.57h.81v-1.74h-.47c-2.74,0-2.88-.45-2.88-1.17"/><path class="cls-1" d="M173.27,234.62c0,1.39-2.09,1.5-2.75,1.5-1.4,0-2.41-.56-2.52-1.39v-9h-2.13v8.88c0,1.39-2.12,1.5-2.75,1.5-1.49,0-2.54-.63-2.54-1.54v-8.84h-2.13v8.87a2.83,2.83,0,0,0,1.15,2.27,6.78,6.78,0,0,0,7.26-.15l.15.15a5.62,5.62,0,0,0,3.5,1c3.61,0,4.88-1.67,4.88-3.24v-8.88h-2.13Z"/><path class="cls-1" d="M182.06,237.86a6.5,6.5,0,0,0,3.73-1,2.86,2.86,0,0,0,1.24-2.3v-3a2.71,2.71,0,0,0-1.24-2.62,7.47,7.47,0,0,0-3.49-.6h-3.77v1.76H182c2.74,0,2.87.43,2.87,1.19v.06h-3.74a5.17,5.17,0,0,0-3.4.81,3.08,3.08,0,0,0-.85,2.42c0,1.55,1.36,3.21,5.23,3.21m-1.31-4.77h4.07v1.49c0,.91-1.14,1.54-2.76,1.54-1.45,0-3-.41-3-1.51,0-.62.23-1.52,1.71-1.52"/><path class="cls-1" d="M200.43,228.42a6.67,6.67,0,0,0-3.75,1,2.84,2.84,0,0,0-1.23,2.31v3a2.75,2.75,0,0,0,1.23,2.64,8,8,0,0,0,3.5.56H204v-1.73h-3.44c-2.71,0-2.86-.45-2.86-1.17v-.09h3.76a5.22,5.22,0,0,0,3.37-.79,3,3,0,0,0,.89-2.42c0-1.56-1.4-3.23-5.24-3.23m1.29,4.79h-4.07V231.7c0-.9,1.14-1.54,2.78-1.54,1.45,0,3,.41,3,1.52,0,.62-.21,1.53-1.7,1.53"/><path class="cls-1" d="M152,232.93a4.3,4.3,0,0,0,.12-.92h2.11a4.94,4.94,0,0,1-.34,1.89,7.93,7.93,0,0,1-.9,1.71l1.62,2.25H152l-.7-.93a2.61,2.61,0,0,1-1.23.83,4.76,4.76,0,0,1-1.71.28,4.31,4.31,0,0,1-1.88-.33,3.06,3.06,0,0,1-1.14-.84,3.22,3.22,0,0,1-.57-1.16,4.81,4.81,0,0,1-.16-1.14,3.12,3.12,0,0,1,.67-1.93,6.42,6.42,0,0,1,1.8-1.58l-.43-.63c-.17-.24-.31-.47-.43-.67a3.1,3.1,0,0,1-.24-.54,4.64,4.64,0,0,1-.11-.51,2.52,2.52,0,0,1,0-.48,2.26,2.26,0,0,1,.24-1.08,2,2,0,0,1,.63-.8,3.09,3.09,0,0,1,1-.51,4.31,4.31,0,0,1,1.26-.18,4,4,0,0,1,1.37.2,2.49,2.49,0,0,1,.94.55,2.4,2.4,0,0,1,.56.81,2.68,2.68,0,0,1,.18,1,2.82,2.82,0,0,1-.52,1.66,7.22,7.22,0,0,1-1.61,1.51l1.83,2.47a3.82,3.82,0,0,0,.32-.92m-4.76.61a2,2,0,0,0-.28,1,1.65,1.65,0,0,0,.1.58,2,2,0,0,0,.34.52,1.67,1.67,0,0,0,1.27.52,2,2,0,0,0,1.6-.77l-2.07-2.91a3.3,3.3,0,0,0-1,1m1.22-4,.27.4.44-.37a2.5,2.5,0,0,0,.61-.69,1.33,1.33,0,0,0,.18-.65,1,1,0,0,0-.31-.76,1.06,1.06,0,0,0-.76-.26,1,1,0,0,0-.75.26.83.83,0,0,0-.3.73,2.56,2.56,0,0,0,.62,1.34"/><path class="cls-2" d="M63.87,81.09c0-1.87.1-3.7.25-5.51A74.57,74.57,0,0,1,138.61,6.63a75,75,0,0,1,31.58,7,88.74,88.74,0,0,1,9.43,2.05A77.47,77.47,0,0,0,61.18,81.09a78.57,78.57,0,0,0,.43,8.15,76.85,76.85,0,0,0,24.6,48.63,73.11,73.11,0,0,1-4.46-8.5A74,74,0,0,1,63.87,81.09Z"/><path class="cls-3" d="M157.34,12.63A82.69,82.69,0,1,0,240.29,95.3,82.84,82.84,0,0,0,157.34,12.63Zm-8.43,134.78A63.91,63.91,0,1,1,213,83.49,64.06,64.06,0,0,1,148.91,147.41Z"/><path class="cls-4" d="M216,81.09a77.05,77.05,0,0,0-36.36-65.44,88.74,88.74,0,0,0-9.43-2.05,74.85,74.85,0,0,1,21.22,14.85A73.17,73.17,0,0,1,203.69,44.6,74.63,74.63,0,0,1,85.77,133.73c-1.41-1.39-2.72-2.84-4-4.36a73.11,73.11,0,0,0,4.46,8.5A77.44,77.44,0,0,0,216,81.09Z"/><path class="cls-5" d="M99.54,25.14A76.69,76.69,0,0,1,220.45,41.69a86.89,86.89,0,0,1,8.24,11.39,79.45,79.45,0,0,0-154.4,26,81.84,81.84,0,0,0,.45,8.35,85.8,85.8,0,0,1,2.58-14A75.92,75.92,0,0,1,99.54,25.14Z"/><path class="cls-6" d="M153.72,158.23a79.13,79.13,0,0,0,75-105.15,86.89,86.89,0,0,0-8.24-11.39,76.38,76.38,0,0,1-66.73,113.78A76.51,76.51,0,0,1,77.08,79.12c0-1.9.1-3.76.24-5.67a85.8,85.8,0,0,0-2.58,14A79.33,79.33,0,0,0,153.72,158.23Z"/></svg>