<?xml version="1.0" encoding="utf-8"?>
<!-- Generator: Adobe Illustrator 24.2.1, SVG Export Plug-In . SVG Version: 6.00 Build 0)  -->
<svg version="1.1" id="Layer_1" xmlns="http://www.w3.org/2000/svg" xmlns:xlink="http://www.w3.org/1999/xlink" x="0px" y="0px"
	 viewBox="0 0 595.28 419.53" style="enable-background:new 0 0 595.28 419.53;" xml:space="preserve">
<style type="text/css">
	.st0{fill:#101820;}
	.st1{fill:#E4002B;}
</style>
<g>
	<g>
		<path class="st0" d="M226.39,233.7v-0.07h-8.44l-34.2,42.92h87.95c-22.1,34.52-60.75,57.46-104.69,57.46
			c-68.51,0-124.25-55.74-124.25-124.25c0-68.51,55.74-124.25,124.25-124.25c36.88,0,70.05,16.17,92.82,41.78l27.07-33.98
			c-30.41-31.3-72.91-50.81-119.9-50.81c-92.22,0-167.25,75.03-167.25,167.25s75.03,167.25,167.25,167.25
			c68.49,0,127.46-41.4,153.3-100.47c5.89-13.46,10.05-27.83,12.21-42.85H226.39z"/>
	</g>
	<g>
		<path class="st1" d="M442.79,244.56c21.7-26.62,102.19-125.4,104.29-128.46l0.1-0.15l0.08-0.16
			c15.63-21.12,1.84-36.74-20.34-36.74h-61.27V42.68h61.81c11.88,0,23.42,0.46,33.93,5.97c10.02,5.26,17.9,12.54,23.4,21.64
			c5.5,9.11,8.29,19.28,8.29,30.24c0,11.6-3.03,22.89-8.99,33.55c-3.07,5.49-20.71,28.37-49.67,64.42l-4.27,5.32h65.35v41.15
			L442.79,244.56z"/>
	</g>
	<path class="st1" d="M368.31,112.56v41.41h-33.23L368.31,112.56z M371.91,42.69L248.37,194.66h119.94v86.78l42.9-51.46v-35.32
		h30.33l32.42-40.69H411.2V42.69H371.91z"/>
</g>
</svg>
