<svg xmlns="http://www.w3.org/2000/svg" viewBox="0 0 71.87 39.61"><defs><style>.cls-1{fill:none;}.cls-2{fill:#232f65;}.cls-3{fill:#fff;}.cls-4{fill:#faae1a;}</style></defs><title>logo-emirates-nbd</title><g id="Layer_2" data-name="Layer 2"><g id="Layer_1-2" data-name="Layer 1"><rect class="cls-1" width="71.87" height="39.61"/><rect class="cls-2" x="15.84" y="9.3" width="56.02" height="21.21"/><rect class="cls-2" y="9.3" width="14.41" height="21.22"/><path class="cls-3" d="M5.94,22.22A16.68,16.68,0,0,1,13.21,9.3H10.39A16.25,16.25,0,0,0,4.53,21.17a14.73,14.73,0,0,0,2.6,9.36h.72a14.81,14.81,0,0,1-1.91-8.31"/><path class="cls-4" d="M6.41,30.52a15.26,15.26,0,0,1-4-8.88A17,17,0,0,1,6.59,9.3H8.92A16.68,16.68,0,0,0,3.81,22.55c.28,3.06,1.48,5.32,3.33,8Z"/><path class="cls-3" d="M7.19,26.1a13.22,13.22,0,0,0,3.44-6.23,13.29,13.29,0,0,0-.25-6.09c0-.14-.06-.22,0-.24a4.83,4.83,0,0,1,.59,1,9.19,9.19,0,0,1,.87,4,9.06,9.06,0,0,1-2.1,5.68,7.84,7.84,0,0,1-1.59,1.45A5.71,5.71,0,0,1,7,26.28s.06-.09.16-.18"/><path class="cls-4" d="M7.14,26.14a9.39,9.39,0,0,0,2.2-4.54,9.17,9.17,0,0,0-.44-4.29c0-.1-.05-.16,0-.17a3.6,3.6,0,0,1,.47.7,6.45,6.45,0,0,1,.78,2.79,6.32,6.32,0,0,1-1.26,4.1,5.47,5.47,0,0,1-1.07,1.08,3.88,3.88,0,0,1-.75.47s0-.06.11-.14"/><path class="cls-3" d="M31.31,22.72h1.12V27H31.31Zm0-1.85h1.12v1.07H31.31Z"/><polygon class="cls-3" points="20.32 21.17 23.76 21.17 23.76 22.09 21.49 22.09 21.49 23.53 23.57 23.53 23.57 24.45 21.49 24.45 21.49 26.08 23.77 26.08 23.77 27 20.32 27 20.32 21.17"/><path class="cls-3" d="M24.35,22.7h1v.6h0a1.53,1.53,0,0,1,1.28-.7,1.27,1.27,0,0,1,1.27.76,1.45,1.45,0,0,1,1.34-.76c1.06,0,1.36.73,1.36,1.69V27H29.54V24.44c0-.4,0-1-.64-1s-.84.88-.84,1.44V27H27V24.44c0-.4,0-1-.65-1s-.83.88-.83,1.44V27H24.35Z"/><path class="cls-3" d="M33,22.7h1v1h0a1.32,1.32,0,0,1,1.18-1.08,1.31,1.31,0,0,1,.34,0v1.13a1.12,1.12,0,0,0-.5-.09c-.91,0-.91,1.13-.91,1.75V27H33Z"/><path class="cls-3" d="M37.3,26.28a1,1,0,0,0,.79-.38,1.47,1.47,0,0,0,.23-.89h-.48c-.5,0-1.24.08-1.24.74,0,.37.3.53.7.53M36,22.93a3.89,3.89,0,0,1,1.5-.33c1.31,0,1.85.54,1.85,1.81V25c0,.44,0,.76,0,1.08s0,.62,0,1h-1a6.09,6.09,0,0,1-.05-.65h0A1.51,1.51,0,0,1,37,27.1a1.37,1.37,0,0,1-1.5-1.28,1.28,1.28,0,0,1,.73-1.23,3.56,3.56,0,0,1,1.44-.25h.62c0-.69-.31-.92-1-.92a2.19,2.19,0,0,0-1.32.47Z"/><path class="cls-3" d="M40.22,23.52H39.4V22.7h.82v-.86l1.12-.36V22.7h1v.82h-1v2c0,.37.1.71.53.71a1,1,0,0,0,.51-.12l0,.89a3.25,3.25,0,0,1-.83.1,1.27,1.27,0,0,1-1.36-1.4Z"/><path class="cls-3" d="M45.38,24.43c0-.54-.29-1-.91-1a1,1,0,0,0-1,1Zm.75,2.32a2.92,2.92,0,0,1-1.48.35,2,2,0,0,1-2.24-2.23,2,2,0,0,1,2-2.27c1.6,0,2.05,1.09,2.05,2.59h-3a1.12,1.12,0,0,0,1.22,1.09,3,3,0,0,0,1.43-.43Z"/><path class="cls-3" d="M49.46,23.6a2.87,2.87,0,0,0-1-.18c-.3,0-.66.11-.66.47,0,.69,1.94.25,1.94,1.81,0,1-.89,1.4-1.8,1.4a4.94,4.94,0,0,1-1.27-.19l.07-.91a2.53,2.53,0,0,0,1.1.28c.28,0,.73-.11.73-.53,0-.84-1.94-.26-1.94-1.81,0-.93.81-1.34,1.69-1.34a4.86,4.86,0,0,1,1.21.16Z"/><polygon class="cls-3" points="52.02 21.17 53.45 21.17 55.67 25.53 55.69 25.53 55.69 21.17 56.8 21.17 56.8 27 55.38 27 53.15 22.64 53.13 22.64 53.13 27 52.02 27 52.02 21.17"/><path class="cls-3" d="M58.88,26.08h.56c.54,0,1.2-.13,1.2-.81s-.62-.88-1.2-.88h-.56Zm0-2.55h.48c.49,0,1.1-.11,1.1-.71s-.59-.73-1.12-.73h-.46Zm-1.16-2.36h2c.75,0,1.88.22,1.88,1.5A1.31,1.31,0,0,1,60.47,24v0a1.34,1.34,0,0,1,1.33,1.32c0,1.47-1.31,1.69-2,1.69h-2Z"/><path class="cls-3" d="M63.61,26.08h.65a2,2,0,0,0,0-4h-.65Zm-1.17-4.91H64c1.78,0,3.36.6,3.36,2.92S65.82,27,64,27h-1.6Z"/><path class="cls-3" d="M27.56,16.38H26.18a2.72,2.72,0,0,1,.4-.82c.16-.21.42-.45.7-.31s.26.46.27.69,0,.29,0,.44m.66-1a1.26,1.26,0,0,0-.69-1,1.17,1.17,0,0,0-1.18.34v-2h-.72v3.13a2.89,2.89,0,0,0-.18.49h-.68s-.16,0-.16-.16V14.59H24a1.24,1.24,0,0,0-.76.17,1.21,1.21,0,0,0-.44.92c0,.2,0,.4,0,.6v.63a.74.74,0,0,1-.53.72,1,1,0,0,1-1.09-.34,1.22,1.22,0,0,1-.11-.84,1.69,1.69,0,0,1,.12-.44s.09-.15.08-.16l-.58-.42a2.33,2.33,0,0,0-.06,2.43,1.61,1.61,0,0,0,2.23.4,1.64,1.64,0,0,0,.62-1,3,3,0,0,0,0-.67V16a1.82,1.82,0,0,1,0-.32.33.33,0,0,1,.11-.21.39.39,0,0,1,.26-.09V16a2.19,2.19,0,0,0,.08.76.77.77,0,0,0,.37.44,1,1,0,0,0,.41.07h3.53v-1.1a3.8,3.8,0,0,0-.06-.75"/><path class="cls-3" d="M30.12,16.37a2.39,2.39,0,0,1-.6,0c-.33-.11-.3-.57-.2-.82s.21-.33.4-.31.27.17.32.33a2.89,2.89,0,0,1,.08.83m1.41,0h-.77a8.15,8.15,0,0,0,0-.93,1.12,1.12,0,0,0-.74-.94,1,1,0,0,0-1.07.47,1.76,1.76,0,0,0-.13,1.62,1.09,1.09,0,0,0,.53.53,1.4,1.4,0,0,0,.61.1,1.22,1.22,0,0,1-.69.42l-.22,0h-.1s0,.07,0,.09l.06.75a2.28,2.28,0,0,0,1.09-.42,1.57,1.57,0,0,0,.43-.46,1.3,1.3,0,0,0,.14-.26s.05-.17.07-.17h1.55V12.76h-.73Z"/><path class="cls-3" d="M35.59,15.87a1.55,1.55,0,0,0-.22.74.91.91,0,0,0,.53,1A.94.94,0,0,0,37,17.32a1.13,1.13,0,0,0,.11-.65V16a2.13,2.13,0,0,1,.13-.83A.89.89,0,0,1,38,14.6H39v1.68s0,.11.15.11h.72V14.59h.72v2.64H39a.73.73,0,0,1-.7-.51,2.19,2.19,0,0,1-.08-.76v-.55a.41.41,0,0,0-.26.09.43.43,0,0,0-.11.21,1.77,1.77,0,0,0,0,.32v.6a3,3,0,0,1-.05.67,1.64,1.64,0,0,1-.62,1,1.61,1.61,0,0,1-2.23-.4,2.28,2.28,0,0,1,0-2.39Z"/><path class="cls-3" d="M41,17.23s-.08,0-.08,0v-.84h.85a.86.86,0,0,0,.28,0c.16-.05.17-.21.14-.35a1.64,1.64,0,0,0-.24-.52,5,5,0,0,0-.34-.46l-.19-.21c.18-.23.35-.46.53-.68a3.73,3.73,0,0,1,.9,1.47,1.27,1.27,0,0,1-.52,1.54,1.33,1.33,0,0,1-.49.09Z"/><path class="cls-3" d="M45.67,17.23a1.7,1.7,0,0,1-1.19-.3s-.57-.46-.26-1.72l.76.09a1.67,1.67,0,0,0,0,.8c.1.27.62.28.87.28h1m-1.2.85a1.7,1.7,0,0,1-1.19-.3s-.57-.46-.26-1.72l.76.09a1.67,1.67,0,0,0,0,.8c.1.27.62.28.87.28h1.76V14.6a3.68,3.68,0,0,1,.48,0h.24s0,0,0,.05v2.59H45.67Z"/><path class="cls-3" d="M49.42,17.62l.07,0,.3-.12a.52.52,0,0,0,.16-.17.63.63,0,0,0,.07-.22,1.89,1.89,0,0,0,0-.35V14.59h.73v2a4.26,4.26,0,0,1-.06.76,1.68,1.68,0,0,1-.22.56,1,1,0,0,1-.37.35,1.66,1.66,0,0,1-.53.19l-.08,0Z"/><path class="cls-3" d="M54.06,16.18a.47.47,0,0,1-.08.14.36.36,0,0,1-.12.08l-.18,0a.36.36,0,0,1-.14,0l-.15,0-.13-.07,0,0c0-.1,0-.2.07-.3a1.83,1.83,0,0,1,.12-.31.85.85,0,0,1,.14-.21.24.24,0,0,1,.15-.06.21.21,0,0,1,.16.05.44.44,0,0,1,.12.15.64.64,0,0,1,.08.19.75.75,0,0,1,0,.2,1.18,1.18,0,0,1,0,.22m.68-.54a1.16,1.16,0,0,0-.08-.32,1.64,1.64,0,0,0-.14-.3,1.22,1.22,0,0,0-.2-.25.92.92,0,0,0-.27-.16.66.66,0,0,0-.32-.07.74.74,0,0,0-.28.06.84.84,0,0,0-.32.24,1.65,1.65,0,0,0-.3.48,3.68,3.68,0,0,0-.26.81.37.37,0,0,1-.09.19.2.2,0,0,1-.15.06h-.21l-.09,0a.08.08,0,0,1-.05-.05.21.21,0,0,1,0-.11,1.18,1.18,0,0,1,0-.22V12.76H51.2v3.38a2,2,0,0,0,0,.43.78.78,0,0,0,.14.35.66.66,0,0,0,.24.23.78.78,0,0,0,.35.08h.42A.66.66,0,0,0,53,16.9l.08.08a1.33,1.33,0,0,0,.19.14.87.87,0,0,0,.24.1,1,1,0,0,0,.3,0,.88.88,0,0,0,.42-.11,1.06,1.06,0,0,0,.31-.29,1.72,1.72,0,0,0,.19-.41,2,2,0,0,0,.06-.48,1.84,1.84,0,0,0,0-.33"/><polygon class="cls-3" points="57.58 12.75 57.65 12.75 57.65 17.23 54.99 17.23 54.99 16.38 55.76 16.38 55.76 13.76 56.48 13.76 56.48 16.38 56.92 16.38 56.92 12.75 57.58 12.75"/><path class="cls-3" d="M64.91,16.37c.14,0,.14-.17.14-.17V14.59h.73v1.62s0,.17.13.17h.78V14.59h.73v2.64H66.18a1,1,0,0,1-.4-.08.72.72,0,0,1-.24-.14.49.49,0,0,1-.18.14.62.62,0,0,1-.31.08h-.46a1,1,0,0,1-.4-.08A.72.72,0,0,1,64,17a.59.59,0,0,1-.18.14.62.62,0,0,1-.31.08H61.71a1.66,1.66,0,0,1-1.19-.31s-.57-.45-.26-1.72l.75.09a1.85,1.85,0,0,0,0,.81c.1.27.62.28.87.28h1.4a.18.18,0,0,0,.2-.17V12.75h.73v3.46s0,.11.16.16a3.43,3.43,0,0,0,.56,0"/><rect class="cls-3" x="65.05" y="13.43" width="0.73" height="0.69"/><rect class="cls-3" x="66.69" y="17.66" width="0.73" height="0.69"/><rect class="cls-3" x="46.49" y="13.43" width="0.73" height="0.69"/><rect class="cls-3" x="39.84" y="17.66" width="0.73" height="0.69"/><rect class="cls-3" x="23.89" y="13.43" width="0.73" height="0.69"/><rect class="cls-3" x="45.48" y="13.43" width="0.73" height="0.69"/><rect class="cls-3" x="36.27" y="18.93" width="0.73" height="0.69"/><rect class="cls-3" x="35.26" y="18.93" width="0.73" height="0.69"/><rect class="cls-3" x="21.93" y="18.93" width="0.73" height="0.69"/><rect class="cls-3" x="20.93" y="18.93" width="0.73" height="0.69"/><rect class="cls-3" x="32.7" y="12.76" width="0.73" height="4.47"/><rect class="cls-3" x="58.2" y="12.76" width="0.73" height="4.47"/><rect class="cls-3" x="48.82" y="12.76" width="0.73" height="4.47"/><path class="cls-3" d="M55.64,18.91v-.55h.16a.54.54,0,0,1,0-.22.71.71,0,0,1,0-.21.49.49,0,0,1,.1-.19.43.43,0,0,1,.17-.13.53.53,0,0,1,.23,0h.11l.14,0,.08,0-.06.46v.1s-.24-.2-.32,0c0,0,0,0,0,.06a.18.18,0,0,0,0,.1.22.22,0,0,0,.16.06h.2v.55Z"/><path class="cls-3" d="M61.79,15.61v-.56H62a.57.57,0,0,1,0-.22.78.78,0,0,1,0-.22.52.52,0,0,1,.1-.18.43.43,0,0,1,.17-.13.56.56,0,0,1,.23-.05h.11l.15,0,.07,0-.06.46v.1s-.24-.2-.32,0a.15.15,0,0,0,0,.06.13.13,0,0,0,0,.1s.07.05.15.05h.21v.56Z"/></g></g></svg>