<svg xmlns="http://www.w3.org/2000/svg" viewBox="0 0 89.66 39.61"><defs><style>.cls-1{fill:#fff;}.cls-2{fill:#c8d532;}.cls-3{fill:#506a31;}.cls-4{fill:#7da831;}.cls-5{fill:none;}</style></defs><title>logo-etisalat</title><g id="Layer_2" data-name="Layer 2"><g id="Layer_1-2" data-name="Layer 1"><rect y="8.2" width="89.66" height="23.44" rx="2.95"/><path class="cls-1" d="M76.91,24.52H72v-.08s.31-2.78,4.26-2.92a.6.6,0,0,1,.46.17.75.75,0,0,1,.18.54Zm4.77-3.85v-.15l-.13.08-.37.2-.36.17s-.11.05-.12.32v3.27h-2.8V21.69a1.25,1.25,0,0,0-.32-1,1.29,1.29,0,0,0-1-.26A7.25,7.25,0,0,0,72.17,22l-.37.41-.12.17-.07-.19a2,2,0,0,0-.38-.6l-.12-.14-.1-.08c0,.13,0,.45,0,.88v2.08H69.48V17.36c0-.11,0-.15,0-.15l-.13.07-.37.21-.37.16s-.11.05-.11.39v6.43a1,1,0,0,0,.19.77.88.88,0,0,0,.81.37H71v.11a6.36,6.36,0,0,1-.29,1.46l0,.06a3.51,3.51,0,0,0,.38-.29,3.77,3.77,0,0,0,.73-1.27l0-.07h8.75a1.29,1.29,0,0,0,.71-.18c.29-.22.39-.39.39-1V20.67"/><path class="cls-1" d="M62.14,21.23h0Zm-1,3.26v-2.3c0-.33.06-.36.11-.38l.37-.17.48-.27a.42.42,0,0,1,0,.14v3.21a.92.92,0,0,1-.3.66.94.94,0,0,1-.75.24h-5.4a1.76,1.76,0,0,1-1.41-.87,2.5,2.5,0,0,1-.32-1.25,3.79,3.79,0,0,1,.16-1.06,1.22,1.22,0,0,1,.21-.45s0,.06,0,.11a6,6,0,0,0,.39,1.54,1.82,1.82,0,0,0,1.7.91h4.73Z"/><path class="cls-1" d="M66.93,17.27Zm-1,1v0c0-.33.06-.36.11-.39l.37-.16.48-.27a.37.37,0,0,1,0,.14v3.71c0,3.34-1.55,4.3-1.67,4.37H63.73A5.52,5.52,0,0,0,65,24.48l0,0v-.06l-1.75-3.89A3.17,3.17,0,0,1,63,19.33a1.62,1.62,0,0,1,.5-1.23v.09a4.42,4.42,0,0,0,.38,1.54s1.08,2.07,1.5,3.1l.13.38.07.21.06-.2,0-.11a3.88,3.88,0,0,0,.17-1V22h0V18.27"/><path class="cls-1" d="M83.32,23.48V18.23c0-.33.06-.36.11-.38l.37-.17.5-.28v3.39h0v4.83h-1V23.48"/><path class="cls-1" d="M57.39,21.38c.24,0,.36,0,.49-.12s.1-.26.1-.45v-.5h-.54a.38.38,0,0,0-.42.43v.64h.37"/><path class="cls-1" d="M58.66,21.38c.23,0,.36,0,.49-.12s.1-.26.1-.45v-.5H58.7a.38.38,0,0,0-.42.43v.64h.38"/><path class="cls-1" d="M79.82,19.65c.23,0,.36,0,.49-.11a.65.65,0,0,0,.1-.46v-.49h-.54c-.37,0-.43.23-.43.43s0,.63,0,.63h.37"/><path class="cls-1" d="M81.08,19.65c.24,0,.36,0,.49-.11a.65.65,0,0,0,.1-.46v-.49h-.54a.38.38,0,0,0-.42.43v.63h.37"/><path class="cls-1" d="M9.17,22a1,1,0,0,0,.58-.18.44.44,0,0,0,0-.46,1.58,1.58,0,0,0-1.5-.85,1.75,1.75,0,0,0-1.88,1.8L9.17,22m.63.78-3.42.35a1.64,1.64,0,0,0,1.8,1.48h2.19a.49.49,0,0,1,.52.51v.44H8.16a2.72,2.72,0,0,1-2.8-3,2.78,2.78,0,0,1,2.93-2.9,2.48,2.48,0,0,1,2.5,1.89c.17.69-.21,1.16-1,1.25"/><path class="cls-1" d="M21.72,19.68c.32,0,.56.15.56.47s-.24.48-.56.48H19.34c-.5,0-.56.54-.52.85a.36.36,0,0,0,.13.24,1.56,1.56,0,0,0,.7.23l1.81.32a1.35,1.35,0,0,1,1.31,1.51c0,1.34-.82,1.83-2.11,1.83h-3v-.47c0-.33.22-.48.55-.48h2.38c.93,0,1.17-.29,1.17-.8s-.13-.63-.75-.73l-1.83-.31c-.93-.15-1.33-.63-1.38-1.26-.08-.91.3-1.88,1.55-1.88Z"/><path class="cls-1" d="M27.25,23.48c0,1-.57,1.37-1.54,1.37s-1.37-.31-1.37-1a1,1,0,0,1,1-.94c.53-.1,1.33-.13,1.94-.27Zm1-1.72c0-1-.28-2.08-1.81-2.08H24.31c-.34,0-.56.15-.56.47s.22.48.56.48h2c.7,0,.94.16.94.66v.15c-.05.3-.39.38-.56.42-1.44.33-3.37,0-3.37,2,0,1.1.94,1.75,2.23,1.75,0,0,1.3.06,1.77-.58v.05a.47.47,0,0,0,.52.5h.42Z"/><path class="cls-1" d="M35,23.48c0,1-.57,1.37-1.53,1.37s-1.37-.31-1.37-1a1,1,0,0,1,1-.94c.53-.1,1.33-.13,1.94-.27Zm1-1.72c0-1-.28-2.08-1.81-2.08H32.06c-.33,0-.55.15-.55.47s.22.48.55.48h2c.71,0,.94.16.94.66v.15c0,.3-.38.38-.56.42-1.43.33-3.36,0-3.36,2,0,1.1.94,1.75,2.22,1.75,0,0,1.3.06,1.77-.58v.05c0,.33.19.5.52.5H36Z"/><path class="cls-1" d="M30.29,18.07h-.57a.4.4,0,0,0-.45.45v7.09h1Z"/><path class="cls-1" d="M14.22,24.72c-.78,0-1.07,0-1.07-.6V20.63h.9c.33,0,.56-.15.56-.48s-.23-.47-.56-.47h-.9v-1h0v-.6H12.5a.41.41,0,0,0-.37.45v1.12h-.28c-.32,0-.55.15-.55.47s.23.48.55.48h.28v3.71c0,1.25.87,1.27,2.09,1.27h.6V25.2c0-.29-.23-.48-.6-.48"/><path class="cls-1" d="M39.49,24.72c-.78,0-1.07,0-1.07-.6V20.63h.91c.32,0,.55-.15.55-.48s-.23-.47-.55-.47h-.91v-1h0v-.6h-.64a.41.41,0,0,0-.38.45v1.12h-.28c-.32,0-.55.15-.55.47s.23.48.55.48h.28v3.71c0,1.25.87,1.27,2.09,1.27h.6V25.2c0-.29-.23-.48-.6-.48"/><path class="cls-1" d="M16.72,25.61V19.68h-.57a.41.41,0,0,0-.45.45v5.48Z"/><path class="cls-1" d="M16.1,19.23c.25,0,.38,0,.51-.12s.11-.28.11-.48v-.52h-.57a.39.39,0,0,0-.45.45v.67h.4"/><path class="cls-2" d="M41.67,15.53a3.71,3.71,0,0,0-.18,3.07c.47,1.88,1.29,3.79,1.66,5.06s.44,2,.61,2.05l.06,0c.22,0,.78-.35,2-.71s3.27-.87,5.08-1.57c1.28-.5,2.15-1.13,2.4-1.92a4.89,4.89,0,0,1-2.12,1.4c-1.81.7-3.83,1.14-5.09,1.57s-1.74.71-2,.71l-.06,0a16.14,16.14,0,0,1-.61-2.05c-.37-1.27-1.19-3.18-1.65-5.06a4.8,4.8,0,0,1-.1-2.55m3.56,1a2.37,2.37,0,0,0-.78.11c-.88.27-1.23,1.09-1.16,2.23a14.06,14.06,0,0,0,.68,3.2c.29.87.49,1.42.85,1.61a.89.89,0,0,0,.38.08,6,6,0,0,0,1.43-.32,15.22,15.22,0,0,0,3-1.29c1-.61,1.43-1.37,1.15-2.25a5.24,5.24,0,0,0-2.69-2.56,6.58,6.58,0,0,0-2.86-.81m.25,7a1.22,1.22,0,0,1-.51-.1c-.64-.33-1.14-1.92-1.13-3.56a1.54,1.54,0,0,1,1.69-1.65,4,4,0,0,1,1.86.52c2,1,2.47,2.6,1.14,3.55a6.09,6.09,0,0,1-3.05,1.24"/><path class="cls-3" d="M43.83,14.28a3,3,0,0,0-1,.14,1.67,1.67,0,0,0-1.15,1.11,1.74,1.74,0,0,1,.88-.59,3.37,3.37,0,0,1,1-.14,12,12,0,0,1,5,1.53c2.45,1.26,4.26,2.86,4.64,4.13a1.66,1.66,0,0,1,.1.56,1.66,1.66,0,0,0-.1-.56c-.38-1.27-2.19-2.87-4.64-4.13a12,12,0,0,0-5-1.53,3.37,3.37,0,0,0-1,.14,1.74,1.74,0,0,0-.88.59,1.74,1.74,0,0,1,.88-.59,3.37,3.37,0,0,1,1-.14,12,12,0,0,1,5,1.53c2.45,1.26,4.26,2.86,4.64,4.13a1.66,1.66,0,0,1,.1.56,1.66,1.66,0,0,0-.1-.56c-.38-1.27-2.19-2.87-4.64-4.13a12,12,0,0,0-5-1.53,3.37,3.37,0,0,0-1,.14,1.74,1.74,0,0,0-.88.59,1.74,1.74,0,0,1,.88-.59,3.37,3.37,0,0,1,1-.14,12,12,0,0,1,5,1.53c2.45,1.26,4.26,2.86,4.64,4.13a1.66,1.66,0,0,1,.1.56v.07a1.62,1.62,0,0,1-.07.44,1.65,1.65,0,0,0,.34-1,1.84,1.84,0,0,0-.09-.59c-.39-1.27-2.19-2.87-4.64-4.13a12.08,12.08,0,0,0-5.05-1.53"/><path class="cls-4" d="M43.56,14.8a3.07,3.07,0,0,0-1,.15,1.61,1.61,0,0,0-.87.58,4.67,4.67,0,0,0,.08,2.55c.47,1.88,1.29,3.79,1.66,5.06s.44,2,.61,2.05l.06,0c.22,0,.78-.35,2-.71s3.28-.87,5.09-1.57a4.89,4.89,0,0,0,2.12-1.4,1.71,1.71,0,0,0,0-1.07c-.38-1.27-2.19-2.87-4.64-4.13a12,12,0,0,0-5-1.53m1.64,9a.89.89,0,0,1-.38-.08c-.36-.19-.56-.74-.85-1.61a14.06,14.06,0,0,1-.68-3.2c-.07-1.14.28-2,1.16-2.23a2.37,2.37,0,0,1,.78-.12,6.61,6.61,0,0,1,2.86.82,5.28,5.28,0,0,1,2.69,2.56c.28.88-.18,1.64-1.15,2.25a14.57,14.57,0,0,1-3,1.28,5.65,5.65,0,0,1-1.43.33"/><rect class="cls-5" width="89.65" height="39.61"/></g></g></svg>