<svg xmlns="http://www.w3.org/2000/svg" viewBox="0 0 62.52 37.23"><defs><style>.cls-1{fill:none;}.cls-2{fill:#54565a;}</style></defs><title>logo-emaar-h</title><g id="Layer_2" data-name="Layer 2"><g id="Layer_1-2" data-name="Layer 1"><rect class="cls-1" width="62.51" height="37.23"/><path class="cls-2" d="M24.57,15.39a6.23,6.23,0,0,0,0-1.73L24,9l-3.27,6.36h-.63L16.76,8.73l-.65,5a7,7,0,0,0,0,1.63H14.91a4.56,4.56,0,0,0,.39-1.55l1.06-8.3h.54l3.88,7.74,3.88-7.74h.41l1.1,8.28a4.67,4.67,0,0,0,.4,1.57Z"/><path class="cls-2" d="M14.4,14.41l-.14,1H7.51a3.37,3.37,0,0,0,.26-1.55V7.09a3.37,3.37,0,0,0-.26-1.55H14.1v1L13.8,6.4a2.23,2.23,0,0,0-.88-.18H9.31v3.85h4.24l-.21.76h-4v3.86h3.82a2.78,2.78,0,0,0,1.28-.37v.09Z"/><path class="cls-2" d="M48.53,10.31V6.11c3-.12,3.27,1.42,3.3,2.12a1.92,1.92,0,0,1-1.13,1.95h0l0,0a8,8,0,0,1-2.13.11m2,.47.4,0a2.56,2.56,0,0,0,2.46-2.51c0-2.83-3.27-2.7-4.65-2.7h-2A3.37,3.37,0,0,1,47,7.08v6.76a3.37,3.37,0,0,1-.26,1.55H48.8a3.54,3.54,0,0,1-.27-1.55v-3c.2,0,.51.08.94.62a38.54,38.54,0,0,0,3.68,4h1.9l-4.5-4.61"/><path class="cls-2" d="M39.86,11.09l1.25-2.94,1.28,2.94Zm5.36,2.69L41.64,5.54h-.41L37.59,14a5.4,5.4,0,0,1-.79,1.37H38l1.54-3.61h3.13l1.56,3.61h2.08a4.57,4.57,0,0,1-1.11-1.61"/><path class="cls-2" d="M30.05,11.09,31.3,8.15l1.28,2.94Zm5.35,2.69L31.82,5.54h-.41L27.78,14a5.42,5.42,0,0,1-.8,1.37h1.23l1.53-3.61h3.14l1.56,3.61h2.07a4.57,4.57,0,0,1-1.11-1.61"/><rect class="cls-2" x="0.04" y="21.22" width="62.47" height="0.21"/><path class="cls-2" d="M53.12,31.3c0,.35,0,.64,0,.89l.33,0,.33,0a3.84,3.84,0,0,1,0-.39c0-.16,0-.34,0-.53s0-.38,0-.58v-.56c.07-.14.15-.3.25-.48l.35-.61q.19-.34.45-.75c.17-.28.36-.59.58-.93l-.27,0-.26,0c-.09.2-.18.41-.29.62l-.32.64-.34.62c-.11.2-.22.38-.32.55-.24-.43-.46-.84-.67-1.23s-.41-.79-.61-1.2l-.19,0h-.37l-.18,0c0,.07.11.18.19.33l.29.5c.1.19.21.38.33.58l.34.59.29.5c.08.16.15.27.19.35V31.3m-5-2.12v1.21c0,.31,0,.61,0,.91l0,.89.33,0,.33,0c0-.29,0-.59,0-.89s0-.6,0-.91V29.18c0-.49,0-1,0-1.46h.75l.38,0,.32,0a.64.64,0,0,1,0-.22.73.73,0,0,1,0-.22l-.87,0H47.55l-.87,0a1,1,0,0,1,0,.22,1,1,0,0,1,0,.22l.32,0,.37,0h.75c0,.49,0,1,0,1.46m-3.61,0v1.21c0,.31,0,.61,0,.91l0,.89.33,0,.33,0c0-.29,0-.59,0-.89s0-.6,0-.91V29.18c0-.31,0-.61,0-.91s0-.6,0-.91l-.17,0h-.33l-.16,0,0,.91c0,.3,0,.6,0,.91m-4.09,0v1.21c0,.31,0,.61,0,.91s0,.6,0,.89l.63,0h1.24l.62,0a.81.81,0,0,1,0-.19.88.88,0,0,1,0-.21c-.34,0-.65.07-.94.08H41c0-.34,0-.73,0-1.17s0-.94,0-1.53c0-.31,0-.61,0-.91l0-.91-.17,0h-.32l-.17,0c0,.31,0,.61,0,.91s0,.6,0,.91M38.62,31.7l-.3-.74c-.12-.27-.24-.57-.37-.89l-.39-1-.39-1c-.12-.32-.24-.61-.35-.88h-.13l-1,2.47c-.35.81-.7,1.63-1.07,2.45l.25,0,.25,0c.06-.22.15-.49.27-.82s.24-.68.39-1.05h1.7c.06.16.12.32.19.49l.2.51.18.48c.05.15.1.28.13.39l.18,0h.35l.18,0-.23-.49m-2-3.48L37.35,30H35.86Zm-4.58,1v1.21c0,.31,0,.61,0,.91l0,.89.33,0,.33,0c0-.29,0-.59,0-.89s0-.6,0-.91V29.18c0-.49,0-1,0-1.46h.76l.37,0,.32,0a.64.64,0,0,1,0-.22.73.73,0,0,1,0-.22l-.87,0H31.43l-.87,0a1,1,0,0,1,0,.22,1,1,0,0,1,0,.22l.32,0,.37,0H32c0,.49,0,1,0,1.46m-3.61,0v1.21c0,.31,0,.61,0,.91l0,.89.33,0,.33,0c0-.29,0-.59,0-.89s0-.6,0-.91V29.18c0-.31,0-.61,0-.91s0-.6,0-.91l-.17,0h-.32l-.17,0,0,.91c0,.3,0,.6,0,.91m-4.5,1.21c0,.31,0,.61,0,.91s0,.6,0,.89l.33,0,.33,0,0-.89c0-.3,0-.6,0-.91V30l.26,0H25a4,4,0,0,0,.55-.05,1.89,1.89,0,0,0,.6-.22,1.54,1.54,0,0,0,.47-.45,1.3,1.3,0,0,0,.19-.75,1.41,1.41,0,0,0-.08-.5,1.33,1.33,0,0,0-.21-.33,1,1,0,0,0-.3-.21,2,2,0,0,0-.32-.1,1.22,1.22,0,0,0-.32,0H24.18l-.33,0c0,.31,0,.61,0,.91s0,.6,0,.91Zm.55-2.77h.61a2.29,2.29,0,0,1,.47,0,.74.74,0,0,1,.35.14.71.71,0,0,1,.23.3,1.32,1.32,0,0,1,.08.49,1.29,1.29,0,0,1-.12.59,1,1,0,0,1-.3.35,1.07,1.07,0,0,1-.41.18,1.63,1.63,0,0,1-.43.05,2.44,2.44,0,0,1-.48-.05Zm-4.87,3.65h-.08a2.45,2.45,0,0,1,0,.34,2.65,2.65,0,0,1-.08.29,1.49,1.49,0,0,0,.43.26,1.63,1.63,0,0,0,.68.12,1.94,1.94,0,0,0,.7-.12,1.25,1.25,0,0,0,.51-.33,1.41,1.41,0,0,0,.33-.5,1.78,1.78,0,0,0,.11-.61A1,1,0,0,0,22,30.1a1.41,1.41,0,0,0-.39-.38,3,3,0,0,0-.51-.25c-.18-.07-.35-.15-.51-.23a1.61,1.61,0,0,1-.4-.32A.82.82,0,0,1,20,28.4a1,1,0,0,1,.06-.35.78.78,0,0,1,.46-.46,1,1,0,0,1,.35-.06.79.79,0,0,1,.32.06.81.81,0,0,1,.23.17.78.78,0,0,1,.16.21,1.28,1.28,0,0,1,.09.22h.08c0-.14,0-.25.08-.34a1.86,1.86,0,0,1,.1-.25,1.29,1.29,0,0,0-.44-.25,1.54,1.54,0,0,0-.56-.08,1.64,1.64,0,0,0-.6.1,1.29,1.29,0,0,0-.47.27,1.37,1.37,0,0,0-.29.42,1.33,1.33,0,0,0-.1.54,1.2,1.2,0,0,0,.16.66,1.48,1.48,0,0,0,.39.4,2.45,2.45,0,0,0,.51.26,4,4,0,0,1,.51.24,1.38,1.38,0,0,1,.4.31.82.82,0,0,1,.15.52,1.23,1.23,0,0,1-.06.39,1,1,0,0,1-.2.33.81.81,0,0,1-.3.21.87.87,0,0,1-.4.08,1.23,1.23,0,0,1-.39-.06,1.31,1.31,0,0,1-.31-.17,1,1,0,0,1-.22-.24,1.74,1.74,0,0,1-.15-.26m-2.36-.48a1.89,1.89,0,0,1-.4.7,1.6,1.6,0,0,1-.59.42,2.14,2.14,0,0,1-1.47,0,1.46,1.46,0,0,1-.59-.42,1.89,1.89,0,0,1-.4-.7,3.33,3.33,0,0,1-.14-1,3.37,3.37,0,0,1,.14-1,2.07,2.07,0,0,1,.4-.7,1.53,1.53,0,0,1,.59-.41,2.14,2.14,0,0,1,1.47,0,1.7,1.7,0,0,1,.59.41,2.07,2.07,0,0,1,.4.7,3.37,3.37,0,0,1,.14,1,3.33,3.33,0,0,1-.14,1m-4.07.06a2.41,2.41,0,0,0,.52.79,2.17,2.17,0,0,0,.8.48,3.33,3.33,0,0,0,2,0,2.09,2.09,0,0,0,.8-.48,2.14,2.14,0,0,0,.52-.79A2.76,2.76,0,0,0,18,29.78a2.71,2.71,0,0,0-.19-1.06,2.06,2.06,0,0,0-.52-.79,2.11,2.11,0,0,0-.8-.49,3.14,3.14,0,0,0-2,0,2.19,2.19,0,0,0-.8.49,2.31,2.31,0,0,0-.52.79A2.91,2.91,0,0,0,13,29.78a3,3,0,0,0,.18,1.07m-2.48-1.67v.24l-.71,0H8.56l-.7,0v-.24c0-.31,0-.61,0-.91l0-.91-.17,0H7.42l-.17,0c0,.31,0,.61,0,.91s0,.6,0,.91v1.21c0,.31,0,.61,0,.91s0,.6,0,.89l.33,0,.33,0,0-.89c0-.3,0-.6,0-.91v-.64h2.82v.64c0,.31,0,.61,0,.91s0,.6,0,.89l.33,0,.33,0,0-.89c0-.3,0-.6,0-.91V29.18c0-.31,0-.61,0-.91l0-.91-.17,0h-.32l-.17,0c0,.31,0,.61,0,.91s0,.6,0,.91"/></g></g></svg>